<?xml version="1.0" encoding="UTF-8" standalone="no"?>
<!-- Created with Inkscape (http://www.inkscape.org/) -->

<svg
   width="100mm"
   height="100mm"
   viewBox="0 0 100 100"
   version="1.1"
   id="svg1"
   inkscape:version="1.3.1 (91b66b0783, 2023-11-16)"
   sodipodi:docname="add-space.svg"
   inkscape:export-filename="logo-96.png"
   inkscape:export-xdpi="24.383999"
   inkscape:export-ydpi="24.383999"
   xml:space="preserve"
   xmlns:inkscape="http://www.inkscape.org/namespaces/inkscape"
   xmlns:sodipodi="http://sodipodi.sourceforge.net/DTD/sodipodi-0.dtd"
   xmlns="http://www.w3.org/2000/svg"
   xmlns:svg="http://www.w3.org/2000/svg"><sodipodi:namedview
     id="namedview1"
     pagecolor="#ffffff"
     bordercolor="#000000"
     borderopacity="0.25"
     inkscape:showpageshadow="2"
     inkscape:pageopacity="0.0"
     inkscape:pagecheckerboard="0"
     inkscape:deskcolor="#d1d1d1"
     inkscape:document-units="mm"
     inkscape:zoom="0.93895903"
     inkscape:cx="340.80294"
     inkscape:cy="89.993277"
     inkscape:window-width="1366"
     inkscape:window-height="705"
     inkscape:window-x="-8"
     inkscape:window-y="-8"
     inkscape:window-maximized="1"
     inkscape:current-layer="layer1" /><defs
     id="defs1"><rect
       x="-88.862876"
       y="49.702965"
       width="112.96128"
       height="194.29341"
       id="rect2" /></defs><g
     inkscape:label="Layer 1"
     inkscape:groupmode="layer"
     id="layer1"><path
       style="font-size:133.333px;font-family:Arial;-inkscape-font-specification:Arial;white-space:pre;fill:#ff7f2a;stroke-width:0.637661"
       d="M 20.121813,49.034864 V 32.346109 H 3.5576022 V 25.371706 H 20.121813 V 8.8074922 h 7.057433 V 25.371706 h 16.564211 v 6.974403 H 27.179246 v 16.688755 z"
       id="text2"
       aria-label="+" /><path
       id="path2"
       style="fill:#008080;stroke-width:0.264583"
       inkscape:transform-center-x="1.0345966"
       inkscape:transform-center-y="-1.1979714"
       transform="matrix(0.60023646,0,0,0.60023646,74.34298,76.704177)"
       d="m 25.771123,25.124482 -9.097845,-2.887579 -7.5364258,5.857574 -0.065138,-9.544876 -7.8997682,-5.357477 9.0575879,-3.011479 2.654101,-9.1686769 5.663035,7.68368 9.540092,-0.3090775 -5.557639,7.7602544 z" /><path
       id="path2-1"
       style="fill:#008080;stroke-width:0.264583"
       inkscape:transform-center-x="-0.46512702"
       inkscape:transform-center-y="-0.63819504"
       transform="matrix(0.36587318,0.21360695,-0.21360695,0.36587318,76.434492,11.854755)"
       d="m -4.7686839,5.2072158 -9.0978451,-2.8875792 -7.536426,5.8575747 -0.06514,-9.5448762 -7.899768,-5.3574767 9.057588,-3.0114788 2.6541,-9.1686776 5.663035,7.68368 9.540093,-0.309077 -5.5576398,7.7602538 z" /><path
       style="fill:#008080;stroke-width:0.136821"
       d="M 40.078908,69.400032 C 20.415334,81.79041 -5.714641,101.57317 15.863088,96.936405 37.440815,92.299637 56.060306,84.490345 66.675155,79.853578 77.290004,75.216812 106.0023,63.258834 89.644997,63.502874 c -16.357311,0.244041 -0.512017,-0.490261 -3.26392,2.749327 -7.066802,8.31916 -45.522052,19.970896 -53.299779,21.843542 -16.853401,4.0578 6.99761,-18.695711 6.99761,-18.695711 z"
       id="path3"
       sodipodi:nodetypes="csssssc" /><path
       style="fill:#008080;stroke-width:0.166446"
       d="m 39.077894,65.050086 c 3.251706,-3.631745 5.350517,-7.48339 7.452402,-7.627609 2.101887,-0.144221 0.477573,3.525362 2.239874,2.716738 1.7623,-0.808626 6.030453,-5.227724 6.030453,-5.227724 l -0.33728,2.116164 -2.911351,5.223006 c 0,0 -1.830526,0.305002 -3.454842,3.97459 -1.624314,3.669585 2.239874,2.716739 -2.165495,5.201731 -4.405372,2.484995 -10.63896,8.055558 -9.217013,5.655671 1.42195,-2.399889 5.347441,-11.190817 3.788274,-10.725031 -1.559164,0.465784 -1.425024,-1.307536 -1.425024,-1.307536 z"
       id="path4" /><path
       id="rect4"
       style="fill:#008080;stroke-width:0.177667"
       d="m 74.427077,31.172465 c 2.856803,-0.602117 6.125963,-0.74218 7.399481,0.665522 1.458486,1.612159 0.690422,4.804623 -0.452097,7.593011 -0.713145,1.740474 -1.817424,3.335017 -3.084632,4.724985 -3.409761,3.740079 -7.586484,6.780495 -11.894398,9.436909 -1.857506,1.145405 -5.938677,2.755478 -5.938677,2.755478 l -5.549585,-6.404574 c 0,0 2.007619,-4.651471 3.488023,-6.681293 2.70325,-3.7065 5.806166,-7.320161 9.670583,-9.792404 1.899128,-1.214958 4.15526,-1.832675 6.361302,-2.297634 z"
       sodipodi:nodetypes="sssaaccaas" /><path
       id="path1"
       style="fill:#f9f9f9;stroke-width:0.264583"
       d="m 73.899704,41.071617 a 3,3 0 0 1 -3,3 3,3 0 0 1 -3,-3 3,3 0 0 1 3,-3 3,3 0 0 1 3,3 z" /><path
       style="fill:#008080;stroke-width:0.24277"
       d="m 59.410857,38.612322 c -4.919076,-2.37797 -11.052111,7.859413 -11.052111,7.859413 l 4.960884,1.301176 c 0,0 1.57055,-4.105673 6.091227,-9.160589 z"
       id="path5"
       sodipodi:nodetypes="cccc" /><path
       style="fill:#008080;stroke-width:0.24277"
       d="m 72.520074,51.680677 c 2.40543,4.905707 -7.797509,11.095873 -7.797509,11.095873 l -1.328888,-4.953534 c 0,0 4.096829,-1.593475 9.126397,-6.142339 z"
       id="path5-3"
       sodipodi:nodetypes="cccc" /><path
       style="font-weight:bold;font-size:17.9125px;font-family:Arial;-inkscape-font-specification:Arial;fill:#ff6600;stroke:#ffffff;stroke-width:0.134;stroke-miterlimit:3.6"
       d="m 14.832623,75.056007 h -2.457721 v -4.740515 q 0,-1.50437 -0.157434,-1.941687 -0.157434,-0.446063 -0.516034,-0.690961 -0.349853,-0.244897 -0.848395,-0.244897 -0.638482,0 -1.1457698,0.349853 -0.5072876,0.349854 -0.6997071,0.927112 -0.1836731,0.577259 -0.1836731,2.134107 v 4.206988 H 6.366168 v -9.288611 h 2.2827943 v 1.364429 q 1.215741,-1.574341 3.0612187,-1.574341 0.813409,0 1.486877,0.297376 0.673468,0.288629 1.014575,0.743438 0.349854,0.45481 0.481049,1.032068 0.139941,0.577259 0.139941,1.653058 z m 7.871704,-2.956262 2.448975,0.411078 q -0.472302,1.346936 -1.495624,2.055389 -1.014575,0.699707 -2.545184,0.699707 -2.422736,0 -3.585999,-1.583087 -0.918365,-1.268219 -0.918365,-3.201159 0,-2.309034 1.206994,-3.612238 1.206995,-1.311951 3.052472,-1.311951 2.072882,0 3.271131,1.373175 1.198248,1.364429 1.14577,4.189496 h -6.157422 q 0.02624,1.093293 0.594751,1.705536 0.568512,0.603498 1.416907,0.603498 0.577258,0 0.970843,-0.314869 0.393585,-0.314868 0.594751,-1.014575 z m 0.139942,-2.48396 q -0.02624,-1.067053 -0.55102,-1.618072 -0.52478,-0.559766 -1.276965,-0.559766 -0.804663,0 -1.329443,0.586005 -0.524781,0.586004 -0.516034,1.591833 z m 6.174914,5.440222 -2.938769,-9.288611 h 2.38775 l 1.740521,6.087452 1.60058,-6.087452 h 2.370258 l 1.548102,6.087452 1.775506,-6.087452 h 2.422736 l -2.982501,9.288611 h -2.361512 l -1.60058,-5.973749 -1.57434,5.973749 z m 16.311922,-2.65014 2.466467,-0.376093 q 0.157434,0.7172 0.638483,1.093293 0.481048,0.367346 1.346936,0.367346 0.953351,0 1.434399,-0.349854 0.323615,-0.244897 0.323615,-0.655975 0,-0.279883 -0.174927,-0.463556 -0.183673,-0.174927 -0.822156,-0.323614 -2.973755,-0.655976 -3.769671,-1.198249 -1.102039,-0.752185 -1.102039,-2.090375 0,-1.206994 0.953351,-2.02915 0.953351,-0.822156 2.956262,-0.822156 1.906702,0 2.833814,0.62099 0.927112,0.62099 1.276965,1.836731 l -2.31778,0.428571 q -0.148687,-0.542273 -0.568512,-0.830902 -0.411077,-0.288629 -1.180755,-0.288629 -0.970844,0 -1.390668,0.271136 -0.279883,0.192419 -0.279883,0.498541 0,0.26239 0.244898,0.446064 0.332361,0.244897 2.29154,0.69096 1.967926,0.446063 2.74635,1.093292 0.769678,0.655976 0.769678,1.827985 0,1.276966 -1.067053,2.195331 -1.067053,0.918365 -3.157428,0.918365 -1.897955,0 -3.00874,-0.769677 -1.102039,-0.769678 -1.443146,-2.090375 z M 56.0891,65.767396 h 2.29154 v 1.364429 q 0.446064,-0.699707 1.206995,-1.137024 0.760931,-0.437317 1.688043,-0.437317 1.618073,0 2.74635,1.268219 1.128278,1.268219 1.128278,3.533521 0,2.326526 -1.137024,3.620984 -1.137024,1.285711 -2.755096,1.285711 -0.769678,0 -1.399415,-0.306121 -0.62099,-0.306122 -1.31195,-1.049561 v 4.679291 H 56.0891 Z m 2.431482,4.486872 q 0,1.565594 0.62099,2.317779 0.62099,0.743439 1.513116,0.743439 0.857141,0 1.425653,-0.682214 0.568512,-0.690961 0.568512,-2.256555 0,-1.460639 -0.586004,-2.169092 -0.586005,-0.708454 -1.451892,-0.708454 -0.900873,0 -1.495624,0.699707 -0.594751,0.690961 -0.594751,2.05539 z M 68.937471,68.60121 66.707155,68.198878 q 0.376092,-1.346936 1.294458,-1.994165 0.918365,-0.647229 2.728857,-0.647229 1.644312,0 2.448975,0.393585 0.804663,0.384839 1.128277,0.988337 0.332361,0.594751 0.332361,2.195331 l -0.02624,2.868798 q 0,1.224488 0.113703,1.810492 0.122448,0.577259 0.446063,1.24198 h -2.431482 q -0.09621,-0.244897 -0.236151,-0.725946 -0.06123,-0.218658 -0.08746,-0.288629 -0.629736,0.612244 -1.346936,0.918366 -0.717199,0.306121 -1.530609,0.306121 -1.434399,0 -2.265301,-0.778424 -0.822156,-0.778424 -0.822156,-1.967926 0,-0.78717 0.376092,-1.399414 0.376093,-0.62099 1.049561,-0.944604 0.682214,-0.332361 1.95918,-0.577259 1.723028,-0.323614 2.38775,-0.603497 v -0.244897 q 0,-0.708454 -0.349854,-1.005829 -0.349853,-0.306122 -1.320697,-0.306122 -0.655975,0 -1.023321,0.26239 -0.367346,0.253644 -0.594751,0.900873 z m 3.288623,1.994165 q -0.472302,0.157434 -1.495624,0.376093 -1.023321,0.218658 -1.33819,0.42857 -0.481048,0.341107 -0.481048,0.865888 0,0.516033 0.384839,0.892126 0.384839,0.376093 0.97959,0.376093 0.664721,0 1.268219,-0.437317 0.446063,-0.332361 0.586004,-0.81341 0.09621,-0.314868 0.09621,-1.198248 z m 12.935829,-2.081628 -2.422735,0.437316 q -0.122449,-0.725946 -0.559766,-1.093292 -0.428571,-0.367346 -1.119531,-0.367346 -0.918366,0 -1.469385,0.638483 -0.542273,0.629736 -0.542273,2.116613 0,1.653058 0.551019,2.335273 0.559766,0.682214 1.495624,0.682214 0.699707,0 1.14577,-0.393585 0.446064,-0.402332 0.629737,-1.373175 l 2.413989,0.411078 q -0.376093,1.661804 -1.443146,2.510199 -1.067053,0.848394 -2.860052,0.848394 -2.037897,0 -3.253638,-1.285711 -1.206995,-1.285712 -1.206995,-3.55976 0,-2.300287 1.215741,-3.577252 1.215741,-1.285712 3.288623,-1.285712 1.69679,0 2.693872,0.734693 1.005829,0.725946 1.443146,2.22157 z m 7.241971,3.585998 2.448975,0.411078 q -0.472303,1.346936 -1.495624,2.055389 -1.014575,0.699707 -2.545185,0.699707 -2.422735,0 -3.585998,-1.583087 -0.918366,-1.268219 -0.918366,-3.201159 0,-2.309034 1.206995,-3.612238 1.206995,-1.311951 3.052472,-1.311951 2.072882,0 3.27113,1.373175 1.198249,1.364429 1.145771,4.189496 h -6.157422 q 0.02624,1.093293 0.594751,1.705536 0.568512,0.603498 1.416906,0.603498 0.577259,0 0.970844,-0.314869 0.393585,-0.314868 0.594751,-1.014575 z m 0.139941,-2.48396 q -0.02624,-1.067053 -0.551019,-1.618072 -0.52478,-0.559766 -1.276965,-0.559766 -0.804663,0 -1.329444,0.586005 -0.52478,0.586004 -0.516034,1.591833 z"
       id="text5"
       aria-label="new space" /></g></svg>
