<?xml version="1.0" encoding="UTF-8" standalone="no"?>
<!-- Created with Inkscape (http://www.inkscape.org/) -->

<svg
   width="100mm"
   height="100mm"
   viewBox="0 0 100 100"
   version="1.1"
   id="svg1"
   inkscape:version="1.3 (0e150ed6c4, 2023-07-21)"
   sodipodi:docname="add-space.svg"
   inkscape:export-filename="logo-96.png"
   inkscape:export-xdpi="24.383999"
   inkscape:export-ydpi="24.383999"
   xml:space="preserve"
   xmlns:inkscape="http://www.inkscape.org/namespaces/inkscape"
   xmlns:sodipodi="http://sodipodi.sourceforge.net/DTD/sodipodi-0.dtd"
   xmlns="http://www.w3.org/2000/svg"
   xmlns:svg="http://www.w3.org/2000/svg"><sodipodi:namedview
     id="namedview1"
     pagecolor="#ffffff"
     bordercolor="#000000"
     borderopacity="0.25"
     inkscape:showpageshadow="2"
     inkscape:pageopacity="0.0"
     inkscape:pagecheckerboard="0"
     inkscape:deskcolor="#d1d1d1"
     inkscape:document-units="mm"
     inkscape:zoom="0.93895903"
     inkscape:cx="291.81252"
     inkscape:cy="246.54963"
     inkscape:window-width="1366"
     inkscape:window-height="705"
     inkscape:window-x="-8"
     inkscape:window-y="-8"
     inkscape:window-maximized="1"
     inkscape:current-layer="layer1" /><defs
     id="defs1"><rect
       x="-88.862876"
       y="49.702965"
       width="112.96128"
       height="194.29341"
       id="rect2" /></defs><g
     inkscape:label="Layer 1"
     inkscape:groupmode="layer"
     id="layer1"><path
       style="font-size:133.333px;font-family:Arial;-inkscape-font-specification:Arial;white-space:pre;fill:#ff8080;stroke-width:0.637661"
       d="M 20.121813,49.034864 V 32.346109 H 3.5576022 V 25.371706 H 20.121813 V 8.8074922 h 7.057433 V 25.371706 h 16.564211 v 6.974403 H 27.179246 v 16.688755 z"
       id="text2"
       aria-label="+" /><path
       sodipodi:type="star"
       style="fill:#ff8080;stroke-width:0.264583"
       id="path2"
       inkscape:flatsided="false"
       sodipodi:sides="5"
       sodipodi:cx="15.410064"
       sodipodi:cy="15.161924"
       sodipodi:r1="14.37373"
       sodipodi:r2="7.1868649"
       sodipodi:arg1="0.76579283"
       sodipodi:arg2="1.3941114"
       inkscape:rounded="0"
       inkscape:randomized="0"
       d="m 25.771123,25.124482 -9.097845,-2.887579 -7.5364258,5.857574 -0.065138,-9.544876 -7.8997682,-5.357477 9.0575879,-3.011479 2.654101,-9.1686769 5.663035,7.68368 9.540092,-0.3090775 -5.557639,7.7602544 z"
       inkscape:transform-center-x="1.0345966"
       inkscape:transform-center-y="-1.1979714"
       transform="matrix(0.60023646,0,0,0.60023646,74.34298,76.704177)" /><path
       sodipodi:type="star"
       style="fill:#ff8080;stroke-width:0.264583"
       id="path2-1"
       inkscape:flatsided="false"
       sodipodi:sides="5"
       sodipodi:cx="-15.129744"
       sodipodi:cy="-4.7553415"
       sodipodi:r1="14.37373"
       sodipodi:r2="7.1868649"
       sodipodi:arg1="0.76579283"
       sodipodi:arg2="1.3941114"
       inkscape:rounded="0"
       inkscape:randomized="0"
       d="m -4.7686839,5.2072158 -9.0978451,-2.8875792 -7.536426,5.8575747 -0.06514,-9.5448762 -7.899768,-5.3574767 9.057588,-3.0114788 2.6541,-9.1686776 5.663035,7.68368 9.540093,-0.309077 -5.5576398,7.7602538 z"
       inkscape:transform-center-x="-0.46512702"
       inkscape:transform-center-y="-0.63819504"
       transform="matrix(0.36587318,0.21360695,-0.21360695,0.36587318,76.434492,11.854755)" /><path
       style="fill:#ff8080;stroke-width:0.136821"
       d="M 40.078908,69.400032 C 20.415334,81.79041 -5.714641,101.57317 15.863088,96.936405 37.440815,92.299637 56.060306,84.490345 66.675155,79.853578 77.290004,75.216812 106.0023,63.258834 89.644997,63.502874 c -16.357311,0.244041 -0.512017,-0.490261 -3.26392,2.749327 -7.066802,8.31916 -45.522052,19.970896 -53.299779,21.843542 -16.853401,4.0578 6.99761,-18.695711 6.99761,-18.695711 z"
       id="path3"
       sodipodi:nodetypes="csssssc" /><path
       style="fill:#ff8080;stroke-width:0.166446"
       d="m 39.077894,65.050086 c 3.251706,-3.631745 5.350517,-7.48339 7.452402,-7.627609 2.101887,-0.144221 0.477573,3.525362 2.239874,2.716738 1.7623,-0.808626 6.030453,-5.227724 6.030453,-5.227724 l -0.33728,2.116164 -2.911351,5.223006 c 0,0 -1.830526,0.305002 -3.454842,3.97459 -1.624314,3.669585 2.239874,2.716739 -2.165495,5.201731 -4.405372,2.484995 -10.63896,8.055558 -9.217013,5.655671 1.42195,-2.399889 5.347441,-11.190817 3.788274,-10.725031 -1.559164,0.465784 -1.425024,-1.307536 -1.425024,-1.307536 z"
       id="path4" /><path
       id="rect4"
       style="fill:#ff8080;stroke-width:0.177667"
       d="m 77.072912,30.114131 12.542033,-2.715883 -5.594649,10.974416 -5.19801,4.372755 c -2.714349,3.281865 -7.420006,13.811882 -9.710574,8.168883 l -7.418041,4.516626 -2.806621,4.084727 -6.947372,-8.258534 5.613326,-2.371659 4.896941,-6.469955 c -5.863917,-2.952032 5.792289,-6.053984 9.881921,-8.31304 z"
       sodipodi:nodetypes="cccccccccccc" /></g></svg>
