<?xml version="1.0" encoding="UTF-8" standalone="no"?>
<!-- Created with Inkscape (http://www.inkscape.org/) -->

<svg
   width="100mm"
   height="100mm"
   viewBox="0 0 100 100"
   version="1.1"
   id="svg1"
   inkscape:version="1.3.1 (91b66b0783, 2023-11-16)"
   sodipodi:docname="add-task.svg"
   inkscape:export-filename="logo-96.png"
   inkscape:export-xdpi="24.383999"
   inkscape:export-ydpi="24.383999"
   xml:space="preserve"
   xmlns:inkscape="http://www.inkscape.org/namespaces/inkscape"
   xmlns:sodipodi="http://sodipodi.sourceforge.net/DTD/sodipodi-0.dtd"
   xmlns="http://www.w3.org/2000/svg"
   xmlns:svg="http://www.w3.org/2000/svg"><sodipodi:namedview
     id="namedview1"
     pagecolor="#ffffff"
     bordercolor="#000000"
     borderopacity="0.25"
     inkscape:showpageshadow="2"
     inkscape:pageopacity="0.0"
     inkscape:pagecheckerboard="0"
     inkscape:deskcolor="#d1d1d1"
     inkscape:document-units="mm"
     inkscape:zoom="0.93895903"
     inkscape:cx="340.80294"
     inkscape:cy="175.19401"
     inkscape:window-width="1366"
     inkscape:window-height="705"
     inkscape:window-x="-8"
     inkscape:window-y="-8"
     inkscape:window-maximized="1"
     inkscape:current-layer="layer1" /><defs
     id="defs1"><rect
       x="-88.862876"
       y="49.702965"
       width="112.96128"
       height="194.29341"
       id="rect2" /></defs><g
     inkscape:label="Layer 1"
     inkscape:groupmode="layer"
     id="layer1"><path
       style="opacity:1;fill:#008080;fill-opacity:1;stroke-width:0.134;stroke-miterlimit:3.6"
       d="m 80.026559,3.3814048 -40.013282,29.8690682 37.759022,-4.790321 0.56356,38.040797 2.81784,-0.563568 z"
       id="path6"
       sodipodi:nodetypes="cccccc" /><path
       style="font-size:133.333px;font-family:Arial;-inkscape-font-specification:Arial;white-space:pre;fill:#ff7f2a;stroke-width:0.637661"
       d="M 20.121813,49.034864 V 32.346109 H 3.5576022 V 25.371706 H 20.121813 V 8.8074922 h 7.057433 V 25.371706 h 16.564211 v 6.974403 H 27.179246 v 16.688755 z"
       id="text2"
       aria-label="+" /><path
       style="fill:#008080;stroke-width:0.136821"
       d="M 40.078908,69.400032 C 20.415334,81.79041 -5.714641,101.57317 15.863088,96.936405 37.440815,92.299637 56.060306,84.490345 66.675155,79.853578 77.290004,75.216812 106.0023,63.258834 89.644997,63.502874 c -16.357311,0.244041 -0.512017,-0.490261 -3.26392,2.749327 -7.066802,8.31916 -45.522052,19.970896 -53.299779,21.843542 -16.853401,4.0578 6.99761,-18.695711 6.99761,-18.695711 z"
       id="path3"
       sodipodi:nodetypes="csssssc" /><path
       style="font-weight:bold;font-size:17.9125px;font-family:Arial;-inkscape-font-specification:Arial;fill:#ff6600;stroke:#ffffff;stroke-width:0.134;stroke-miterlimit:3.6"
       d="m 14.832623,75.056007 h -2.457721 v -4.740515 q 0,-1.50437 -0.157434,-1.941687 -0.157434,-0.446063 -0.516034,-0.690961 -0.349853,-0.244897 -0.848395,-0.244897 -0.638482,0 -1.1457698,0.349853 -0.5072876,0.349854 -0.6997071,0.927112 -0.1836731,0.577259 -0.1836731,2.134107 v 4.206988 H 6.366168 v -9.288611 h 2.2827943 v 1.364429 q 1.215741,-1.574341 3.0612187,-1.574341 0.813409,0 1.486877,0.297376 0.673468,0.288629 1.014575,0.743438 0.349854,0.45481 0.481049,1.032068 0.139941,0.577259 0.139941,1.653058 z m 7.871704,-2.956262 2.448975,0.411078 q -0.472302,1.346936 -1.495624,2.055389 -1.014575,0.699707 -2.545184,0.699707 -2.422736,0 -3.585999,-1.583087 -0.918365,-1.268219 -0.918365,-3.201159 0,-2.309034 1.206994,-3.612238 1.206995,-1.311951 3.052472,-1.311951 2.072882,0 3.271131,1.373175 1.198248,1.364429 1.14577,4.189496 h -6.157422 q 0.02624,1.093293 0.594751,1.705536 0.568512,0.603498 1.416907,0.603498 0.577258,0 0.970843,-0.314869 0.393585,-0.314868 0.594751,-1.014575 z m 0.139942,-2.48396 q -0.02624,-1.067053 -0.55102,-1.618072 -0.52478,-0.559766 -1.276965,-0.559766 -0.804663,0 -1.329443,0.586005 -0.524781,0.586004 -0.516034,1.591833 z m 6.174914,5.440222 -2.938769,-9.288611 h 2.38775 l 1.740521,6.087452 1.60058,-6.087452 h 2.370258 l 1.548102,6.087452 1.775506,-6.087452 h 2.422736 l -2.982501,9.288611 h -2.361512 l -1.60058,-5.973749 -1.57434,5.973749 z m 21.437276,-9.288611 v 1.95918 h -1.679297 v 3.743433 q 0,1.137024 0.04373,1.329443 0.05248,0.183673 0.218658,0.306122 0.174927,0.122449 0.419824,0.122449 0.341108,0 0.988337,-0.236151 l 0.209912,1.906701 q -0.857141,0.367346 -1.941687,0.367346 -0.664722,0 -1.198249,-0.218658 -0.533526,-0.227405 -0.78717,-0.577258 -0.244898,-0.3586 -0.341107,-0.962097 -0.07872,-0.428571 -0.07872,-1.731775 v -4.049555 h -1.128278 v -1.95918 h 1.128278 v -1.845477 l 2.466467,-1.434399 v 3.279876 z m 3.542264,2.833814 -2.230316,-0.402332 q 0.376093,-1.346936 1.294458,-1.994165 0.918366,-0.647229 2.728858,-0.647229 1.644311,0 2.448974,0.393585 0.804664,0.384839 1.128278,0.988337 0.332361,0.594751 0.332361,2.195331 l -0.02624,2.868798 q 0,1.224488 0.113702,1.810492 0.122449,0.577259 0.446064,1.24198 h -2.431482 q -0.09621,-0.244897 -0.236152,-0.725946 -0.06122,-0.218658 -0.08746,-0.288629 -0.629736,0.612244 -1.346936,0.918366 -0.7172,0.306121 -1.530609,0.306121 -1.4344,0 -2.265302,-0.778424 -0.822156,-0.778424 -0.822156,-1.967926 0,-0.78717 0.376093,-1.399414 0.376093,-0.62099 1.049561,-0.944604 0.682214,-0.332361 1.959179,-0.577259 1.723029,-0.323614 2.387751,-0.603497 v -0.244897 q 0,-0.708454 -0.349854,-1.005829 -0.349853,-0.306122 -1.320697,-0.306122 -0.655975,0 -1.023322,0.26239 -0.367346,0.253644 -0.594751,0.900873 z m 3.288624,1.994165 q -0.472303,0.157434 -1.495624,0.376093 -1.023322,0.218658 -1.33819,0.42857 -0.481049,0.341107 -0.481049,0.865888 0,0.516033 0.384839,0.892126 0.384839,0.376093 0.97959,0.376093 0.664722,0 1.268219,-0.437317 0.446063,-0.332361 0.586005,-0.81341 0.09621,-0.314868 0.09621,-1.198248 z m 3.97084,1.810492 2.466467,-0.376093 q 0.157434,0.7172 0.638483,1.093293 0.481049,0.367346 1.346936,0.367346 0.953351,0 1.434399,-0.349854 0.323615,-0.244897 0.323615,-0.655975 0,-0.279883 -0.174927,-0.463556 -0.183673,-0.174927 -0.822156,-0.323614 -2.973755,-0.655976 -3.769671,-1.198249 -1.102039,-0.752185 -1.102039,-2.090375 0,-1.206994 0.953351,-2.02915 0.953351,-0.822156 2.956262,-0.822156 1.906702,0 2.833814,0.62099 0.927112,0.62099 1.276965,1.836731 l -2.317779,0.428571 q -0.148688,-0.542273 -0.568512,-0.830902 -0.411078,-0.288629 -1.180756,-0.288629 -0.970844,0 -1.390668,0.271136 -0.279883,0.192419 -0.279883,0.498541 0,0.26239 0.244898,0.446064 0.332361,0.244897 2.29154,0.69096 1.967926,0.446063 2.746351,1.093292 0.769677,0.655976 0.769677,1.827985 0,1.276966 -1.067053,2.195331 -1.067053,0.918365 -3.157428,0.918365 -1.897955,0 -3.00874,-0.769677 -1.102039,-0.769678 -1.443146,-2.090375 z m 10.740502,2.65014 V 62.233876 h 2.457721 v 6.804651 l 2.877545,-3.271131 h 3.026233 l -3.17492,3.39358 3.402325,5.895031 h -2.65014 l -2.335273,-4.172003 -1.14577,1.198248 v 2.973755 z"
       id="text5"
       aria-label="new task" /></g></svg>
