<?xml version="1.0" encoding="UTF-8" standalone="no"?>
<!-- Created with Inkscape (http://www.inkscape.org/) -->

<svg
   width="100mm"
   height="100mm"
   viewBox="0 0 100 100"
   version="1.1"
   id="svg1"
   inkscape:version="1.3.1 (91b66b0783, 2023-11-16)"
   sodipodi:docname="add-alone-task.svg"
   inkscape:export-filename="logo-96.png"
   inkscape:export-xdpi="24.383999"
   inkscape:export-ydpi="24.383999"
   xml:space="preserve"
   xmlns:inkscape="http://www.inkscape.org/namespaces/inkscape"
   xmlns:sodipodi="http://sodipodi.sourceforge.net/DTD/sodipodi-0.dtd"
   xmlns="http://www.w3.org/2000/svg"
   xmlns:svg="http://www.w3.org/2000/svg"><sodipodi:namedview
     id="namedview1"
     pagecolor="#ffffff"
     bordercolor="#000000"
     borderopacity="0.25"
     inkscape:showpageshadow="2"
     inkscape:pageopacity="0.0"
     inkscape:pagecheckerboard="0"
     inkscape:deskcolor="#d1d1d1"
     inkscape:document-units="mm"
     inkscape:zoom="0.93895903"
     inkscape:cx="340.80294"
     inkscape:cy="175.19401"
     inkscape:window-width="1366"
     inkscape:window-height="705"
     inkscape:window-x="-8"
     inkscape:window-y="-8"
     inkscape:window-maximized="1"
     inkscape:current-layer="layer1" /><defs
     id="defs1"><rect
       x="-88.862876"
       y="49.702965"
       width="112.96128"
       height="194.29341"
       id="rect2" /></defs><g
     inkscape:label="Layer 1"
     inkscape:groupmode="layer"
     id="layer1"><path
       style="opacity:1;fill:#008080;fill-opacity:1;stroke-width:0.134;stroke-miterlimit:3.6"
       d="m 80.026559,3.3814048 -40.013282,29.8690682 37.759022,-4.790321 0.56356,38.040797 2.81784,-0.563568 z"
       id="path6"
       sodipodi:nodetypes="cccccc" /><path
       style="font-size:133.333px;font-family:Arial;-inkscape-font-specification:Arial;white-space:pre;fill:#ff7f2a;stroke-width:0.637661"
       d="M 20.121813,49.034864 V 32.346109 H 3.5576022 V 25.371706 H 20.121813 V 8.8074922 h 7.057433 V 25.371706 h 16.564211 v 6.974403 H 27.179246 v 16.688755 z"
       id="text2"
       aria-label="+" /><path
       style="fill:#008080;stroke-width:0.136821"
       d="M 40.078908,69.400032 C 20.415334,81.79041 -5.714641,101.57317 15.863088,96.936405 37.440815,92.299637 56.060306,84.490345 66.675155,79.853578 77.290004,75.216812 106.0023,63.258834 89.644997,63.502874 c -16.357311,0.244041 -0.512017,-0.490261 -3.26392,2.749327 -7.066802,8.31916 -45.522052,19.970896 -53.299779,21.843542 -16.853401,4.0578 6.99761,-18.695711 6.99761,-18.695711 z"
       id="path3"
       sodipodi:nodetypes="csssssc" /><g
       id="text5"
       style="font-size:17.9125px;font-family:Arial;-inkscape-font-specification:Arial;fill:#ff6600;stroke-width:0.134;stroke-miterlimit:3.6"
       aria-label="new alone&#10;task"><path
         style="font-weight:bold;stroke:#ffffff"
         d="m 14.832623,75.056007 h -2.457721 v -4.740515 q 0,-1.50437 -0.157434,-1.941687 -0.157434,-0.446063 -0.516034,-0.690961 -0.349853,-0.244897 -0.848395,-0.244897 -0.638482,0 -1.1457698,0.349853 -0.5072876,0.349854 -0.6997071,0.927112 -0.1836731,0.577259 -0.1836731,2.134107 v 4.206988 H 6.366168 v -9.288611 h 2.2827943 v 1.364429 q 1.215741,-1.574341 3.0612187,-1.574341 0.813409,0 1.486877,0.297376 0.673468,0.288629 1.014575,0.743438 0.349854,0.45481 0.481049,1.032068 0.139941,0.577259 0.139941,1.653058 z m 7.871704,-2.956262 2.448975,0.411078 q -0.472302,1.346936 -1.495624,2.055389 -1.014575,0.699707 -2.545184,0.699707 -2.422736,0 -3.585999,-1.583087 -0.918365,-1.268219 -0.918365,-3.201159 0,-2.309034 1.206994,-3.612238 1.206995,-1.311951 3.052472,-1.311951 2.072882,0 3.271131,1.373175 1.198248,1.364429 1.14577,4.189496 h -6.157422 q 0.02624,1.093293 0.594751,1.705536 0.568512,0.603498 1.416907,0.603498 0.577258,0 0.970843,-0.314869 0.393585,-0.314868 0.594751,-1.014575 z m 0.139942,-2.48396 q -0.02624,-1.067053 -0.55102,-1.618072 -0.52478,-0.559766 -1.276965,-0.559766 -0.804663,0 -1.329443,0.586005 -0.524781,0.586004 -0.516034,1.591833 z m 6.174914,5.440222 -2.938769,-9.288611 h 2.38775 l 1.740521,6.087452 1.60058,-6.087452 h 2.370258 l 1.548102,6.087452 1.775506,-6.087452 h 2.422736 l -2.982501,9.288611 h -2.361512 l -1.60058,-5.973749 -1.57434,5.973749 z m 19.01454,-6.454797 -2.230316,-0.402332 q 0.376093,-1.346936 1.294458,-1.994165 0.918366,-0.647229 2.728858,-0.647229 1.644311,0 2.448974,0.393585 0.804663,0.384839 1.128278,0.988337 0.332361,0.594751 0.332361,2.195331 l -0.02624,2.868798 q 0,1.224488 0.113702,1.810492 0.122449,0.577259 0.446063,1.24198 H 51.83838 q -0.09621,-0.244897 -0.236151,-0.725946 -0.06122,-0.218658 -0.08746,-0.288629 -0.629736,0.612244 -1.346936,0.918366 -0.7172,0.306121 -1.530609,0.306121 -1.4344,0 -2.265302,-0.778424 -0.822156,-0.778424 -0.822156,-1.967926 0,-0.78717 0.376093,-1.399414 0.376092,-0.62099 1.04956,-0.944604 0.682215,-0.332361 1.95918,-0.577259 1.723029,-0.323614 2.38775,-0.603497 v -0.244897 q 0,-0.708454 -0.349853,-1.005829 -0.349854,-0.306122 -1.320697,-0.306122 -0.655975,0 -1.023322,0.26239 -0.367346,0.253644 -0.594751,0.900873 z m 3.288623,1.994165 q -0.472302,0.157434 -1.495623,0.376093 -1.023322,0.218658 -1.33819,0.42857 -0.481049,0.341107 -0.481049,0.865888 0,0.516033 0.384839,0.892126 0.384839,0.376093 0.97959,0.376093 0.664722,0 1.268219,-0.437317 0.446063,-0.332361 0.586005,-0.81341 0.09621,-0.314868 0.09621,-1.198248 z m 4.836724,4.460632 V 62.233876 h 2.457721 v 12.822131 z m 4.408154,-4.7755 q 0,-1.224488 0.603497,-2.370258 0.603498,-1.14577 1.705536,-1.749267 1.110785,-0.603498 2.475214,-0.603498 2.107867,0 3.454803,1.373175 1.346936,1.364429 1.346936,3.454804 0,2.107867 -1.364428,3.498535 -1.355683,1.381921 -3.419818,1.381921 -1.276966,0 -2.440229,-0.577258 -1.154516,-0.577258 -1.758014,-1.688043 -0.603497,-1.119531 -0.603497,-2.720111 z m 2.518945,0.131195 q 0,1.381921 0.655976,2.116614 0.655975,0.734692 1.618072,0.734692 0.962097,0 1.609326,-0.734692 0.655976,-0.734693 0.655976,-2.134107 0,-1.364429 -0.655976,-2.099121 -0.647229,-0.734692 -1.609326,-0.734692 -0.962097,0 -1.618072,0.734692 -0.655976,0.734692 -0.655976,2.116614 z m 17.440195,4.644305 h -2.457721 v -4.740515 q 0,-1.50437 -0.157434,-1.941687 -0.157434,-0.446063 -0.516034,-0.690961 -0.349853,-0.244897 -0.848395,-0.244897 -0.638482,0 -1.14577,0.349853 -0.507288,0.349854 -0.699707,0.927112 -0.183673,0.577259 -0.183673,2.134107 v 4.206988 h -2.457721 v -9.288611 h 2.282794 v 1.364429 q 1.215741,-1.574341 3.061218,-1.574341 0.81341,0 1.486878,0.297376 0.673468,0.288629 1.014575,0.743438 0.349854,0.45481 0.481049,1.032068 0.139941,0.577259 0.139941,1.653058 z m 7.871709,-2.956262 2.448974,0.411078 q -0.472302,1.346936 -1.495623,2.055389 -1.014576,0.699707 -2.545185,0.699707 -2.422735,0 -3.585998,-1.583087 -0.918366,-1.268219 -0.918366,-3.201159 0,-2.309034 1.206995,-3.612238 1.206994,-1.311951 3.052472,-1.311951 2.072882,0 3.27113,1.373175 1.198249,1.364429 1.14577,4.189496 H 84.82082 q 0.02624,1.093293 0.594751,1.705536 0.568512,0.603498 1.416907,0.603498 0.577259,0 0.970844,-0.314869 0.393585,-0.314868 0.594751,-1.014575 z m 0.139941,-2.48396 q -0.02624,-1.067053 -0.551019,-1.618072 -0.52478,-0.559766 -1.276965,-0.559766 -0.804664,0 -1.329444,0.586005 -0.52478,0.586004 -0.516034,1.591833 z"
         id="path1" /><path
         style="font-weight:bold;stroke:#ffffff"
         d="m 10.643127,88.158022 v 1.95918 H 8.9638305 v 3.743432 q 0,1.137024 0.043732,1.329444 0.052478,0.183673 0.2186585,0.306121 0.1749268,0.122449 0.4198242,0.122449 0.3411072,0 0.9883362,-0.236151 l 0.209912,1.906702 q -0.857141,0.367346 -1.9416869,0.367346 -0.6647217,0 -1.1982483,-0.218658 Q 7.1708312,97.210482 6.9171873,96.860628 6.6722899,96.502028 6.5760802,95.898531 6.4973631,95.46996 6.4973631,94.166756 V 90.117202 H 5.3690855 v -1.95918 h 1.1282776 v -1.845478 l 2.4664674,-1.434399 v 3.279877 z m 3.542267,2.833813 -2.230316,-0.402331 q 0.376093,-1.346936 1.294458,-1.994165 0.918366,-0.647229 2.728858,-0.647229 1.644311,0 2.448974,0.393585 0.804663,0.384839 1.128278,0.988336 0.332361,0.594751 0.332361,2.195331 l -0.02624,2.868799 q 0,1.224487 0.113702,1.810492 0.122449,0.577258 0.446063,1.24198 h -2.431482 q -0.09621,-0.244898 -0.236151,-0.725946 -0.06122,-0.218659 -0.08746,-0.288629 -0.629737,0.612243 -1.346936,0.918365 -0.7172,0.306122 -1.530609,0.306122 -1.4344,0 -2.265302,-0.778424 -0.822156,-0.778424 -0.822156,-1.967926 0,-0.787171 0.376093,-1.399414 0.376092,-0.62099 1.04956,-0.944605 0.682215,-0.332361 1.95918,-0.577258 1.723029,-0.323615 2.38775,-0.603497 v -0.244898 q 0,-0.708453 -0.349853,-1.005829 -0.349854,-0.306122 -1.320697,-0.306122 -0.655976,0 -1.023322,0.262391 -0.367346,0.253643 -0.594751,0.900872 z M 17.474017,92.986 q -0.472302,0.157435 -1.495623,0.376093 -1.023322,0.218658 -1.33819,0.428571 -0.481049,0.341107 -0.481049,0.865887 0,0.516034 0.384839,0.892126 0.384839,0.376093 0.97959,0.376093 0.664722,0 1.268219,-0.437317 0.446063,-0.332361 0.586005,-0.813409 0.09621,-0.314868 0.09621,-1.198249 z m 3.970838,1.810492 2.466468,-0.376092 q 0.157434,0.7172 0.638482,1.093292 0.481049,0.367346 1.346936,0.367346 0.953351,0 1.4344,-0.349853 0.323614,-0.244898 0.323614,-0.655976 0,-0.279882 -0.174926,-0.463555 -0.183674,-0.174927 -0.822156,-0.323615 -2.973755,-0.655975 -3.769672,-1.198248 -1.102038,-0.752185 -1.102038,-2.090375 0,-1.206995 0.95335,-2.029151 0.953351,-0.822155 2.956263,-0.822155 1.906701,0 2.833813,0.62099 0.927112,0.62099 1.276966,1.836731 l -2.31778,0.42857 q -0.148688,-0.542273 -0.568512,-0.830902 -0.411078,-0.288629 -1.180756,-0.288629 -0.970843,0 -1.390667,0.271136 -0.279883,0.19242 -0.279883,0.498542 0,0.26239 0.244897,0.446063 0.332361,0.244897 2.291541,0.690961 1.967926,0.446063 2.74635,1.093292 0.769678,0.655975 0.769678,1.827985 0,1.276965 -1.067054,2.19533 -1.067053,0.918366 -3.157428,0.918366 -1.897955,0 -3.00874,-0.769678 -1.102038,-0.769678 -1.443146,-2.090375 z m 10.740503,2.650141 V 84.624501 h 2.457721 v 6.804651 l 2.877545,-3.27113 h 3.026233 l -3.174921,3.393579 3.402325,5.895032 h -2.65014 l -2.335272,-4.172003 -1.14577,1.198248 v 2.973755 z"
         id="path2" /></g></g></svg>
