<?xml version="1.0" encoding="UTF-8" standalone="no"?>
<!-- Created with Inkscape (http://www.inkscape.org/) -->

<svg
   width="297mm"
   height="210mm"
   viewBox="0 0 296.99999 210"
   version="1.1"
   id="svg1"
   inkscape:version="1.3.1 (91b66b0783, 2023-11-16)"
   sodipodi:docname="let-log-in.svg"
   xmlns:inkscape="http://www.inkscape.org/namespaces/inkscape"
   xmlns:sodipodi="http://sodipodi.sourceforge.net/DTD/sodipodi-0.dtd"
   xmlns="http://www.w3.org/2000/svg"
   xmlns:svg="http://www.w3.org/2000/svg">
  <sodipodi:namedview
     id="namedview1"
     pagecolor="#ffffff"
     bordercolor="#000000"
     borderopacity="0.25"
     inkscape:showpageshadow="2"
     inkscape:pageopacity="0.0"
     inkscape:pagecheckerboard="0"
     inkscape:deskcolor="#d1d1d1"
     inkscape:document-units="mm"
     inkscape:zoom="0.5"
     inkscape:cx="940"
     inkscape:cy="141"
     inkscape:window-width="1366"
     inkscape:window-height="705"
     inkscape:window-x="-8"
     inkscape:window-y="-8"
     inkscape:window-maximized="1"
     inkscape:current-layer="layer1" />
  <defs
     id="defs1">
    <rect
       x="502.04581"
       y="67.882251"
       width="674.57987"
       height="206.47518"
       id="rect13" />
  </defs>
  <g
     inkscape:label="Layer 1"
     inkscape:groupmode="layer"
     id="layer1">
    <path
       style="opacity:0.382272;fill:#999999;stroke:none;stroke-width:0.0842721;stroke-miterlimit:3.6"
       d="m 245.34502,22.266079 c -3.82477,0.399384 -3.72802,-2.003134 -5.00131,0.359423 -1.27331,2.362567 -1.74476,2.957426 -3.15922,1.89964 -2.48349,-1.857261 -3.57005,-1.048072 -3.57005,-1.048072 l -2.15778,1.323233 c 0,0 0.26736,-1.549208 -4.01077,1.604889 -4.27812,3.154097 0.43436,3.42876 -2.21311,6.079592 -2.64746,2.650833 -4.44298,4.155812 -4.44298,4.155812 0,0 0.2245,1.323009 -0.96637,3.184714 -1.19087,1.861705 4.1637,-1.115236 -1.5298,2.577567 -5.69351,3.692793 -2.94518,3.116253 -5.99122,4.158224 -3.04605,1.041961 0.30693,0.822147 -3.04605,1.041961 -3.35298,0.219815 -1.49346,-4.361172 -4.64471,0.0072 -3.15125,4.368409 -3.19247,4.61884 -3.19247,4.61884 0,0 -1.83239,-3.645319 -3.16968,1.793255 -1.3373,5.438575 -5.40936,7.340526 -1.29608,5.188144 4.11327,-2.152393 1.53902,-1.28999 4.54384,-2.08153 3.00483,-0.79154 0.78795,1.930164 3.04605,-1.041971 2.2581,-2.972116 -1.47503,-1.786018 2.5146,-3.187116 3.98963,-1.401099 5.18972,-1.975226 6.38059,-3.836941 1.19087,-1.861704 -1.12688,-1.214302 1.96038,-2.506694 3.08726,-1.292393 3.04604,-1.041962 6.38059,-3.836931 3.33454,-2.79497 0.13286,0.536294 3.67347,-3.510822 3.54062,-4.047116 -2.23531,0.14654 4.17727,-5.228399 6.41258,-5.37494 3.05961,-5.155115 6.41258,-5.37494 3.35298,-0.219815 3.65992,0.602331 6.06009,-0.545923 2.40018,-1.148265 2.65668,-1.363265 2.65668,-1.363265 l 2.46657,-2.150064 z"
       id="path15"
       sodipodi:nodetypes="cssccsscssssscssssssssssssccc" />
    <path
       id="path1"
       style="fill:#916f6f;stroke-width:0.191246;stroke-miterlimit:3.6"
       d="m 179.25438,207.45898 a 99.904381,99.904381 0 0 1 -99.904382,99.90439 99.904381,99.904381 0 0 1 -99.90438,-99.90439 99.904381,99.904381 0 0 1 99.90438,-99.90438 99.904381,99.904381 0 0 1 99.904382,99.90438 z" />
    <path
       id="path5"
       style="fill:#333333;stroke-width:0.115727;stroke-miterlimit:3.6"
       transform="rotate(42.506187)"
       d="M 138.09612,77.617592 A 10.039938,12.731165 0 0 1 128.05618,90.348757 10.039938,12.731165 0 0 1 118.01624,77.617592 10.039938,12.731165 0 0 1 128.05618,64.886427 10.039938,12.731165 0 0 1 138.09612,77.617592 Z" />
    <path
       id="path6"
       style="fill:#333333;stroke-width:0.134;stroke-miterlimit:3.6"
       d="M 112.2532,205.79753 A 15.715448,15.715447 0 0 1 96.53775,221.51298 15.715448,15.715447 0 0 1 80.822302,205.79753 15.715448,15.715447 0 0 1 96.53775,190.08208 15.715448,15.715447 0 0 1 112.2532,205.79753 Z" />
    <path
       style="fill:#333333;stroke:none;stroke-width:0.134;stroke-miterlimit:3.6"
       d="m 141.55208,129.64583 c 7.42015,5.27155 18.78542,19.05 18.78542,19.05 -7.98059,-0.87901 -10.92687,-2.18093 -14.81116,-5.73004 -3.61364,-3.30181 -4.35475,-7.01404 -3.97426,-13.31996 z"
       id="path7"
       sodipodi:nodetypes="ccsc" />
    <path
       id="path8"
       style="fill:#333333;stroke-width:0.134;stroke-miterlimit:3.6"
       d="m 93.133331,175.68333 a 4.4979167,4.2333331 0 0 1 -4.497917,4.23334 4.4979167,4.2333331 0 0 1 -4.497917,-4.23334 4.4979167,4.2333331 0 0 1 4.497917,-4.23333 4.4979167,4.2333331 0 0 1 4.497917,4.23333 z" />
    <path
       id="path9"
       style="fill:#333333;stroke-width:0.134;stroke-miterlimit:3.6"
       transform="rotate(13.972298)"
       d="m 60.019469,167.29111 a 4.7624998,6.8791666 0 0 1 -4.7625,6.87916 4.7624998,6.8791666 0 0 1 -4.762499,-6.87916 4.7624998,6.8791666 0 0 1 4.762499,-6.87917 4.7624998,6.8791666 0 0 1 4.7625,6.87917 z" />
    <path
       style="fill:#ffaaaa;stroke:none;stroke-width:0.206753;stroke-miterlimit:3.6"
       d="m 86.046278,105.42255 c 0,0 -2.007508,-0.1348 -2.702415,1.61882 -0.694906,1.7537 0,4.58663 1.698661,4.18193 1.69866,-0.40471 5.173193,-1.48392 5.173193,-1.48392 l 3.860592,-24.686905 2.084721,25.091605 c 0,0 5.40483,4.85645 7.02628,4.45174 1.62144,-0.40469 2.7024,-3.91214 1.38981,-4.85644 -1.3126,-0.94431 -2.93405,-2.42821 -2.93405,-2.42821 0,0 1.77587,-12.410916 1.00375,-17.806953 -0.77212,-5.396048 2.39357,-16.053237 3.01127,-20.909677 0.61769,-4.85644 1.98736,-7.49263 2.99112,-8.841637 0.60297,-0.81036 4.53539,-5.749997 9.53297,-10.393211 2.57579,-2.393144 4.78891,-0.7952 5.20848,-2.042206 0.46074,-1.369319 -0.15473,-0.597101 3.54926,-2.449095 0,0 -3.34528,-2.213917 -4.62921,-1.829388 -6.58214,1.971328 -3.87093,-4.041815 -6.17544,-2.306368 -0.93722,0.705782 0.47358,1.927758 -0.45297,3.006966 -0.92654,1.07921 -9.25209,9.341311 -10.17863,9.476212 -0.92655,0.13491 -3.55175,-1.214111 -6.254169,-1.483912 -2.702414,-0.269803 -9.265421,-0.539606 -9.883114,-0.13491 -0.617695,0.404702 -8.879361,6.205451 -9.960326,7.959166 -1.080966,1.753714 -7.444783,3.634501 -7.753631,5.388217 -0.308848,1.753715 -1.357366,4.864267 -0.04476,4.189761 1.312602,-0.674505 3.397321,-0.944307 4.246652,-2.023515 0.849329,-1.07921 1.853083,-0.269803 2.470778,0.134909 0.617693,0.404703 2.316354,-2.29332 2.316354,-2.29332 l 6.022524,-1.34901 c 0,0 -2.625203,12.006198 -1.853084,16.99754 0.772119,4.991343 1.235389,24.821811 1.235389,24.821811 z"
       id="path10"
       sodipodi:nodetypes="ccscccsscssssscsssssssssssccscc" />
    <g
       id="g10"
       style="stroke:none">
      <path
         style="fill:#ff0000;stroke:none;stroke-width:0.134;stroke-miterlimit:3.6"
         d="m 70.908333,83.60833 -10e-7,-21.166664 -31.749999,6.35 -2.116667,20.6375 z"
         id="path2"
         sodipodi:nodetypes="ccccc" />
      <path
         id="path3"
         style="fill:#ffff00;stroke:none;stroke-width:0.0876974;stroke-miterlimit:3.6"
         inkscape:transform-center-x="-0.11473153"
         inkscape:transform-center-y="-0.69893289"
         d="m 59.667594,82.180256 -3.857637,-3.148701 -4.746499,3.615421 1.712843,-5.867303 -3.956557,-3.537823 5.21754,-0.550843 1.99991,-5.728564 1.67433,5.454366 5.030006,0.06987 -4.172964,4.137884 z"
         sodipodi:nodetypes="ccccccccccc" />
      <path
         style="fill:#333333;stroke:none;stroke-width:0.106492;stroke-miterlimit:3.6"
         d="M 68.699036,109.27557 68.462869,59.851583 70.82453,60.974855 70.588363,110.77327 Z"
         id="path4" />
    </g>
    <path
       id="path11"
       style="fill:#ffaaaa;stroke-width:0.134;stroke-miterlimit:3.6"
       d="m 108.14893,44.527103 a 8.7931681,9.3544331 0 0 1 -8.793171,9.354433 8.7931681,9.3544331 0 0 1 -8.793168,-9.354433 8.7931681,9.3544331 0 0 1 8.793168,-9.354433 8.7931681,9.3544331 0 0 1 8.793171,9.354433 z" />
    <path
       id="path11-5"
       style="fill:#f9f9f9;stroke-width:0.0823953;stroke-miterlimit:3.6"
       d="m 104.89883,44.610161 a 6.6765013,4.6580791 0 0 1 -6.676502,4.658079 6.6765013,4.6580791 0 0 1 -6.676501,-4.658079 6.6765013,4.6580791 0 0 1 6.676501,-4.658079 6.6765013,4.6580791 0 0 1 6.676502,4.658079 z" />
    <path
       id="path12"
       style="fill:#ff9955;stroke-width:0.134;stroke-miterlimit:3.6"
       transform="rotate(57.500563)"
       d="m 226.05582,-143.05417 a 10.476966,34.98558 0 0 1 -10.47696,34.98558 10.476966,34.98558 0 0 1 -10.47697,-34.98558 10.476966,34.98558 0 0 1 10.47697,-34.98558 10.476966,34.98558 0 0 1 10.47696,34.98558 z" />
    <path
       style="fill:#aa4400;stroke:none;stroke-width:0.158677;stroke-miterlimit:3.6"
       d="m 227.05618,107.95987 c 2.83699,7.29211 24.08357,-6.76848 18.75631,-12.160792 -4.88368,-4.943327 -10.70004,-4.905511 -14.59509,-1.861696 -5.30476,4.145451 -5.74016,9.964058 -4.16122,14.022488 z"
       id="path13"
       sodipodi:nodetypes="ssss" />
    <path
       style="font-size:133.333px;font-family:'Berlin Sans FB Demi';-inkscape-font-specification:'Berlin Sans FB Demi';white-space:pre;fill:#c83737;stroke-width:0.506457;stroke-miterlimit:3.6;stroke:none"
       d="m 567.86507,194.82548 q -5.59895,0 -14.5833,-0.26042 -11.71872,-0.26042 -14.5833,-0.32552 l -19.46609,-0.26042 q -2.92968,0.0651 -8.39842,-0.26041 -1.88801,-0.32552 -1.88801,-2.01823 0,-7.09633 0.19531,-21.2239 0.26041,-14.19267 0.26041,-21.28901 0,-7.55206 -0.45572,-22.59109 -0.45573,-15.10412 -0.45573,-22.65619 0,-1.43229 1.95312,-1.43229 1.95312,0 5.79425,0.19532 3.90624,0.19531 5.79426,0.19531 2.14843,0 6.38019,-0.19531 4.23176,-0.26042 6.38019,-0.26042 0.97656,0 0.91146,1.23698 l -0.0651,0.84635 q -0.78125,12.23955 -1.75781,36.78376 l -0.0651,17.18745 q 0,8.33332 0.0651,12.17445 0.0651,0.78125 0.13021,1.5625 0.0651,0.78125 0.97656,0.97656 0.0651,0 1.6927,0 5.85936,0 17.51298,-0.58594 11.71872,-0.65104 17.57808,-0.65104 1.7578,0 1.7578,1.49739 0,11.13279 -1.6276,19.20568 -0.32552,1.69271 -1.36718,2.01823 -0.32552,0.13021 -2.66926,0.13021 z m 72.26544,-36.45824 q 0,6.5755 -4.23176,7.48696 -0.71615,0.1302 -13.47653,1.43228 -7.68227,0.84636 -22.91661,2.01823 0.91146,4.23176 5.53384,6.44529 3.77603,1.82292 8.59373,1.82292 5.79426,0 11.65362,-3.125 2.47395,-1.56249 4.9479,-3.12499 1.36718,0.65104 4.55728,6.64061 3.2552,5.98957 3.2552,7.61717 0,0.45573 -0.97656,1.49739 -7.94269,8.52862 -24.67442,8.52862 -15.49475,0 -24.99993,-9.04945 -9.7656,-9.17967 -9.7656,-24.54421 0,-14.97392 8.72393,-24.54421 8.98435,-9.89581 23.82807,-9.89581 12.49997,0 21.2239,9.11456 8.72394,9.11456 8.72394,21.67964 z m -22.7864,-3.97135 q 0,-4.03645 -2.86458,-7.09633 -2.86457,-3.05989 -6.83592,-3.05989 -4.10155,0 -6.77081,3.45051 -2.47396,3.1901 -2.47396,7.48696 0,1.75781 1.82291,1.75781 4.8177,0 14.97393,-1.49739 2.14843,-0.32552 2.14843,-1.04167 z m 73.50242,20.24735 q 0,1.95312 -0.52083,5.92446 -0.45573,3.97134 -0.45573,5.85936 0,1.82291 -0.39062,2.34374 -0.39062,0.52084 -2.14843,1.4974 -8.39842,4.62238 -18.61975,4.62238 -18.81505,0 -18.81505,-14.38798 0,-4.29687 0.32552,-12.8906 0.32552,-8.65883 0.32552,-12.95569 0,-2.86458 -3.32031,-2.86458 -0.26041,0 -0.84635,0 -0.58593,0.0651 -0.84635,0.0651 -2.47395,0 -2.47395,-1.75781 0,-1.04167 0.13021,-3.1901 0.19531,-2.14843 0.19531,-3.19009 0,-1.36719 -0.19531,-4.16666 -0.13021,-2.79947 -0.13021,-4.16666 0,-1.30208 4.16665,-1.43228 2.34375,-0.0651 2.53906,-1.30208 0.39062,-2.47396 0.26042,-7.81248 -0.26042,-8.39842 -0.26042,-8.0078 0,-7.55206 1.43229,-7.55206 1.75781,0 5.01301,0.78125 3.71092,0.84635 5.14321,0.97656 3.32031,0.45573 10.02602,1.23697 1.6276,0.13021 1.6276,1.10677 0,2.60416 -0.45573,7.87759 -0.39062,5.27342 -0.39062,7.94268 0,3.1901 1.88801,3.1901 2.27864,0 6.90103,-0.19531 4.62238,-0.19531 6.96612,-0.19531 1.43229,0 1.43229,0.97656 0,1.49739 -0.32552,4.49217 -0.32552,2.99479 -0.32552,4.49218 0,1.56249 0.0651,4.55728 0.0651,2.99478 0.0651,4.55728 0,1.36718 -1.88802,1.36718 -1.30208,0 -4.36196,-0.0651 -3.05989,-0.13021 -4.36197,-0.13021 h -4.8828 q -0.97656,0 -0.97656,2.86458 0,1.56249 0,4.62238 0.0651,3.12499 0.0651,4.62238 0,5.46874 1.23698,7.55207 1.75781,2.79947 6.90102,2.79947 1.6276,0 4.62239,-0.71614 3.05988,-0.78125 4.29686,-0.78125 1.36718,0 1.36718,1.43229 z m 63.86702,-20.11714 q 0,17.77339 0.13021,27.27858 0,1.49739 0.19531,5.14321 0.19532,3.32031 0.19532,5.14322 0,1.36718 -1.6276,1.6276 -2.92968,0.52083 -10.54685,0.52083 -7.81248,0 -9.96091,-0.52083 -1.43229,-0.32552 -1.6276,-1.75781 0,-0.19531 0,-2.79947 0,-5.79426 0.1302,-17.31767 0.13021,-11.58851 0.13021,-17.31766 0,-27.34368 0.0651,-24.93483 -0.19532,-14.38799 -1.6276,-24.80463 -0.13021,-0.71614 -0.13021,-1.10676 0,-1.43229 1.6927,-1.43229 h 23.24213 q 1.6276,0 1.49739,1.36718 l -0.0651,1.17187 q -1.69271,28.12493 -1.69271,49.73946 z m 74.54409,7.16144 q 0,14.84371 -9.11456,24.08848 -9.04946,9.24477 -23.82807,9.24477 -14.32288,0 -23.56764,-9.11456 -9.24477,-9.11456 -9.24477,-23.43744 0,-15.10413 8.85414,-24.47911 8.85415,-9.44008 23.95827,-9.44008 14.71351,0 23.82807,9.24477 9.11456,9.17967 9.11456,23.89317 z m -21.35411,0 q 0,-5.14322 -3.1901,-9.04946 -3.1901,-3.97134 -8.26821,-3.97134 -5.14321,0 -8.46352,4.03645 -3.12499,3.77603 -3.12499,8.98435 0,5.27342 3.12499,9.04946 3.32031,4.03644 8.46352,4.03644 5.07811,0 8.39842,-4.03644 3.05989,-3.77604 3.05989,-9.04946 z m 94.07527,15.10413 q 0,18.55464 -7.81248,26.62753 -8.07289,8.26821 -26.82284,8.26821 -5.46874,0 -14.90882,-1.75781 -12.04424,-2.21353 -12.04424,-5.20832 0,-1.23697 2.79947,-12.76038 0.45573,-1.82291 1.43229,-1.82291 0.32552,0.0651 0.71614,0.26041 10.02602,4.94791 18.55464,4.94791 4.68749,0 9.30988,-2.34375 5.59894,-2.79947 5.59894,-7.03123 v -4.36197 q -6.64061,6.24999 -17.05725,6.24999 -12.23955,0 -20.11713,-8.78904 -7.61717,-8.46352 -7.61717,-20.83328 0,-12.43487 7.29165,-20.63797 7.61716,-8.52862 19.92182,-8.52862 9.8307,0 15.03902,7.03123 1.04167,1.43229 1.43229,1.43229 0.58594,0 0.58594,-2.34375 0,-5.20832 1.17187,-5.20832 1.04166,0 11.26299,1.10677 10.22133,1.04166 10.61195,1.17187 1.10677,0.39063 1.10677,1.69271 0,4.49217 -0.32552,13.41142 -0.26041,8.91925 -0.26041,13.41142 0,2.66927 0.0651,8.0078 0.0651,5.33852 0.0651,8.00779 z m -22.52598,-18.03381 q 0,-4.75259 -3.1901,-8.2031 -3.12499,-3.51562 -7.87758,-3.51562 -4.75259,0 -7.94269,3.58072 -3.12499,3.51562 -3.12499,8.26821 0,4.75259 3.1901,8.2031 3.2552,3.45051 7.87758,3.45051 4.75259,0 7.87758,-3.51561 3.1901,-3.51562 3.1901,-8.26821 z m 92.9034,-43.29416 q 0,11.3281 -12.76038,11.3281 -5.46874,0 -9.04946,-2.86458 -3.90624,-3.12499 -3.90624,-8.46352 0,-5.07811 4.03645,-8.33331 3.71093,-2.99479 8.91925,-2.99479 5.07811,0 8.78904,3.05989 3.97134,3.2552 3.97134,8.26821 z m -1.6927,48.37227 q 0,4.75259 0.19531,14.19267 0.19531,9.37498 0.19531,14.06247 0,1.36718 -1.6276,1.6276 -2.21353,0.39062 -9.96091,0.39062 -7.81248,0 -10.02602,-0.39062 -1.43228,-0.26042 -1.7578,-0.84635 -0.13021,-0.26042 -0.13021,-1.95312 0,-4.49218 0.19531,-13.47653 0.19531,-9.04946 0.19531,-13.60674 0,-18.48953 -1.43229,-29.42701 -0.1302,-1.04166 -0.1302,-1.36718 0,-1.30208 1.7578,-1.30208 1.82292,0 5.53384,0.39062 3.77604,0.39063 5.66405,0.39063 1.88802,0 5.66405,-0.32552 3.77603,-0.32552 5.66405,-0.32552 1.56249,0 1.56249,1.30208 0,0.26041 -0.1302,1.23697 -1.43229,12.69528 -1.43229,29.42701 z m 77.27848,27.99472 q 0,1.75781 -1.8229,2.01823 -1.8229,0.26041 -9.5052,0.26041 -8.2031,0 -10.1562,-0.39062 -1.9532,-0.39063 -1.9532,-2.66927 0,-3.05988 0.1954,-9.24476 0.1953,-6.18488 0.1953,-9.30988 0,-2.40884 -0.1302,-7.16144 -0.1303,-4.81769 -0.1303,-7.22654 0,-8.91925 -7.7473,-8.91925 -2.5391,0 -5.9245,2.21354 -3.6458,2.47395 -3.6458,4.8828 v 35.15616 q 0,2.14843 -2.0182,2.40885 -2.2787,0.26041 -9.30991,0.26041 -7.61717,0 -9.89581,-0.39062 -2.01822,-0.32552 -2.01822,-2.14843 0,-5.07812 0.0651,-15.29944 0.0651,-10.22133 0.0651,-15.36455 0,-16.21089 -2.53905,-25.45566 -0.13021,-0.58594 -0.13021,-0.97656 0,-1.04167 0.97656,-1.43229 4.10155,-0.45573 10.93747,-1.43229 10.35157,-2.01822 11.65357,-2.01822 0.7162,0 1.1068,4.42707 0.3906,4.36197 1.1068,4.36197 -0.7162,0 6.9661,-4.49218 7.7474,-4.55728 13.5416,-4.55728 8.2683,0 13.8021,3.90624 6.1849,4.49218 6.1849,12.49997 v 20.76818 q 0,4.23176 0.065,12.69528 0.065,8.39841 0.065,12.63017 z m 36.914,-73.69773 q 0,11.84893 -2.1485,22.26557 -2.6041,10.67706 -5.1432,21.28901 -0.5859,2.40885 -5.2083,2.40885 -5.2734,0 -5.8594,-2.08333 -6.1197,-20.89838 -6.1197,-23.76296 0,-2.66926 0.2604,-7.94269 0.2604,-5.27342 0.2604,-7.94269 0,-2.92968 -0.1953,-8.78904 -0.1953,-5.85936 -0.1953,-8.78904 0,-2.40884 1.1718,-2.40884 1.8229,0 5.4688,0.26041 3.6458,0.26042 5.4687,0.26042 1.8229,0 5.4687,-0.26042 3.6459,-0.26041 5.4688,-0.26041 1.3021,0 1.3021,15.75516 z m 0,64.51807 q 0,5.46873 -3.3855,9.11456 -3.3854,3.58072 -8.8541,3.58072 -5.5338,0 -8.9192,-3.58072 -3.3203,-3.58072 -3.3203,-9.11456 0,-5.46874 3.3854,-8.98435 3.3854,-3.51562 8.8541,-3.51562 5.4036,0 8.789,3.51562 3.4506,3.51561 3.4506,8.98435 z"
       id="text13"
       transform="scale(0.26458333)"
       aria-label="Let log in!" />
    <g
       id="g13"
       transform="matrix(0.46869175,0.05105585,-0.05105585,0.46869175,139.02246,-30.440169)">
      <path
         id="rect4"
         style="fill:#008080;stroke-width:0.177667"
         d="m 257.31417,67.373704 c 2.8568,-0.602117 6.12596,-0.74218 7.39948,0.665522 1.45848,1.612159 0.69042,4.804623 -0.4521,7.593011 -0.71314,1.740474 -1.81742,3.335017 -3.08463,4.724985 -3.40976,3.740079 -7.58648,6.780495 -11.8944,9.436909 -1.85751,1.145405 -5.93868,2.755478 -5.93868,2.755478 l -5.54958,-6.404574 c 0,0 2.00762,-4.651471 3.48802,-6.681293 2.70325,-3.7065 5.80617,-7.320161 9.67058,-9.792404 1.89913,-1.214958 4.15526,-1.832675 6.36131,-2.297634 z"
         sodipodi:nodetypes="sssaaccaas" />
      <path
         id="path1-6"
         style="fill:#f9f9f9;stroke-width:0.264583"
         d="m 256.78679,77.272858 a 3,3 0 0 1 -3,3 3,3 0 0 1 -3,-3 3,3 0 0 1 3,-3 3,3 0 0 1 3,3 z" />
      <path
         style="fill:#008080;stroke-width:0.24277"
         d="m 242.29795,74.813561 c -4.91908,-2.37797 -11.05211,7.859413 -11.05211,7.859413 l 4.96088,1.301176 c 0,0 1.57055,-4.105673 6.09123,-9.160589 z"
         id="path5-1"
         sodipodi:nodetypes="cccc" />
      <path
         style="fill:#008080;stroke-width:0.24277"
         d="m 255.40716,87.881916 c 2.40543,4.905707 -7.79751,11.095873 -7.79751,11.095873 l -1.32888,-4.953534 c 0,0 4.09683,-1.593475 9.12639,-6.142339 z"
         id="path5-3"
         sodipodi:nodetypes="cccc" />
    </g>
    <path
       style="opacity:0.382272;fill:#999999;stroke:none;stroke-width:0.0823546;stroke-miterlimit:3.6"
       d="m 143.7335,29.629242 4.65708,-3.274375 5.25738,-0.883661 c 0,0 3.45005,6.883822 5.07442,3.794298 1.62438,-3.089515 2.18549,-5.296197 4.21677,-4.048311 l 2.03128,1.247894 c 0,0 -0.78649,0.454079 4.57226,2.470456 5.35876,2.016386 2.92057,-3.568917 5.35876,2.016386 2.43819,5.585295 1.60785,6.871574 6.72613,9.833681 5.11827,2.962097 4.28779,9.044719 4.28779,9.044719 0,0 3.02211,5.301928 5.95633,6.297459 2.93423,0.995531 5.64775,2.647704 5.64775,2.647704 0,0 -1.07885,1.08369 -7.47441,-9.6e-5 -6.37295,-1.079956 -3.41097,-1.557491 -6.28625,-6.083547 -2.87529,-4.526065 1.63322,-3.927427 -2.1601,-5.502804 -3.79333,-1.575367 -1.62567,2.082737 -3.39384,-4.15836 -1.76817,-6.241105 -4.2653,-8.295876 -4.92778,-8.989241 -0.66247,-0.693365 -2.10389,-2.281809 -3.1233,-2.231178 -1.01942,0.05064 -1.32495,-1.386721 -4.07765,0.202553 -2.75271,1.589274 -6.2919,3.632625 -6.2919,3.632625 l -4.53596,-1.953498 c 0,0 2.2279,1.134367 -2.30806,-0.819132 -4.53596,-1.953498 -7.69614,3.005888 -9.5671,1.127526 -1.87097,-1.878381 -7.94768,-4.684683 0.3604,-4.371098 z"
       id="path14"
       sodipodi:nodetypes="cccsscssscscsssssssccssc" />
  </g>
</svg>
