<?xml version="1.0" encoding="UTF-8" standalone="no"?>
<!-- Created with Inkscape (http://www.inkscape.org/) -->

<svg
   width="100mm"
   height="100mm"
   viewBox="0 0 100 100"
   version="1.1"
   id="svg5"
   inkscape:version="1.3.1 (91b66b0783, 2023-11-16)"
   sodipodi:docname="logo.svg"
   xml:space="preserve"
   inkscape:export-filename="favicon96.png"
   inkscape:export-xdpi="24.383999"
   inkscape:export-ydpi="24.383999"
   xmlns:inkscape="http://www.inkscape.org/namespaces/inkscape"
   xmlns:sodipodi="http://sodipodi.sourceforge.net/DTD/sodipodi-0.dtd"
   xmlns="http://www.w3.org/2000/svg"
   xmlns:svg="http://www.w3.org/2000/svg"><sodipodi:namedview
     id="namedview7"
     pagecolor="#ffffff"
     bordercolor="#000000"
     borderopacity="0.25"
     inkscape:showpageshadow="2"
     inkscape:pageopacity="0.0"
     inkscape:pagecheckerboard="0"
     inkscape:deskcolor="#d1d1d1"
     inkscape:document-units="mm"
     showgrid="false"
     inkscape:zoom="0.69418085"
     inkscape:cx="458.09388"
     inkscape:cy="77.069254"
     inkscape:window-width="1366"
     inkscape:window-height="705"
     inkscape:window-x="-8"
     inkscape:window-y="-8"
     inkscape:window-maximized="1"
     inkscape:current-layer="layer1" /><defs
     id="defs2"><rect
       x="181.31442"
       y="360.59161"
       width="556.16675"
       height="307.62338"
       id="rect761" /><rect
       x="14.260686"
       y="44.819298"
       width="747.66736"
       height="442.08127"
       id="rect63" /></defs><g
     inkscape:label="Layer 1"
     inkscape:groupmode="layer"
     id="layer1"><text
       xml:space="preserve"
       transform="scale(0.26458333)"
       id="text61"
       style="font-size:80px;font-family:'Franklin Gothic Demi Cond';-inkscape-font-specification:'Franklin Gothic Demi Cond';white-space:pre;shape-inside:url(#rect63);display:inline;fill:#550000" /><path
       style="fill:#000080;stroke-width:0.305214"
       d="M 21.314699,3.5726806 C 6.3644607,9.6625112 4.8544654,19.650178 4.8544654,19.650178 c 0,0 -10.4520548,57.084446 4.7316113,78.62372 C 32.392636,99.99365 55.008126,101.09584 98.212468,94.932111 94.91716,65.518559 95.315253,27.158372 97.831324,2.8103913 67.187808,17.910884 36.264937,-2.51715 21.314699,3.5726806 Z"
       id="path1"
       sodipodi:nodetypes="zccccz" /><path
       d="m 65.082716,58.49955 q 0,0.15567 -0.31134,0.15567 -0.246478,0 -0.726461,-0.03892 -0.46701,-0.03892 -0.713488,-0.03892 -0.246478,0 -0.739433,0.03892 -0.492955,0.03892 -0.739433,0.03892 -0.36323,0 -0.934021,-1.958849 -0.557818,-1.971821 -1.14158,-1.997766 -0.479983,-0.02595 -2.503695,-0.02595 h -2.049656 q -2.140464,0 -2.438832,0.02595 -0.46701,0.03892 -0.998883,1.997766 -0.518901,1.958849 -0.804296,1.958849 h -2.918815 q -0.25945,0 -0.25945,-0.181615 0,-0.129725 0.181615,-0.583763 l 3.178265,-8.691581 q 0.402148,-1.050774 2.438832,-6.058162 0.36323,-0.830241 0.985911,-2.503695 0.15567,-0.492955 0.337285,-0.492955 0.246478,0 0.72646,0.06486 0.479983,0.06486 0.726461,0.06486 0.233505,0 0.700516,-0.06486 0.479982,-0.07784 0.700515,-0.07784 0.116753,0 0.324313,0.479983 0.31134,0.726461 3.074485,7.822424 3.904725,9.975859 3.904725,10.066667 z m -6.04519,-7.160825 q 0,-0.376203 -1.167525,-3.372853 -1.128609,-2.905842 -1.595619,-3.813918 -2.68531,6.849485 -2.68531,7.173798 0,0.441065 0.985911,0.518901 0.05189,0.01297 1.271306,0.01297 h 1.336169 q 1.855068,0 1.855068,-0.5189 z M 76.93959,41.765013 q -0.25945,0.428092 -0.713488,1.297251 -0.142698,0.402147 -0.505928,1.14158 -0.07783,0.116753 -0.20756,0.116753 0.01297,0 -1.258334,-0.454038 -1.258333,-0.46701 -2.075601,-0.46701 -2.386942,0 -2.386942,2.101546 0,1.167526 1.673454,2.036684 2.815034,1.465894 3.113402,1.686427 1.673454,1.336168 1.673454,3.606357 0,2.905842 -2.296134,4.579296 -2.062629,1.504811 -5.072252,1.504811 -1.401031,0 -1.504811,-0.31134 -0.05189,-0.492955 -0.233505,-1.439949 -0.10378,-0.389175 -0.324313,-1.167525 -0.03892,-0.116753 -0.03892,-0.220533 0,-0.181615 0.194587,-0.181615 0.311341,0 0.946994,0.06486 0.648625,0.06486 0.972938,0.06486 4.021478,0 4.021478,-2.594502 0,-1.271306 -1.621564,-2.205327 -2.957732,-1.686426 -3.022595,-1.751288 -1.634536,-1.323196 -1.634536,-3.554468 0,-2.412887 1.582646,-3.865808 1.543729,-1.401031 3.995533,-1.401031 1.037801,0 2.386942,0.337285 1.465894,0.376203 2.205327,0.908076 0.06486,0.05189 0.129725,0.168643 z m 16.371308,16.280499 q 0,0.609708 -0.376203,0.609708 h -2.983677 q -0.376203,0 -1.958849,-2.763144 Q 86.656,53.557024 86.214935,52.519223 85.77387,51.52034 85.709007,51.403587 q -0.389175,-0.648625 -0.908076,-0.687543 -0.15567,-0.01297 -0.869158,-0.01297 -1.634536,0 -1.634536,0.402148 0,1.19347 0.07784,3.56744 0.09081,2.373969 0.09081,3.554467 0,0.428093 -0.324313,0.428093 -0.246478,0 -0.739433,-0.03892 -0.492955,-0.03892 -0.739433,-0.03892 -0.233505,0 -0.700516,0.03892 -0.454037,0.03892 -0.687543,0.03892 -0.324312,0 -0.324312,-0.298368 0,-1.426976 0.129725,-4.280928 0.142697,-2.866924 0.142697,-4.2939 0,-1.504812 -0.142697,-4.514434 -0.129725,-3.022594 -0.129725,-4.527406 0,-0.285395 0.324312,-0.285395 0.233506,0 0.713488,0.03892 0.479983,0.03892 0.726461,0.03892 0.233505,0 0.700515,-0.03892 0.467011,-0.03892 0.700516,-0.03892 0.298368,0 0.298368,0.233505 0,1.102664 -0.07783,3.320963 -0.06486,2.218299 -0.06486,3.333935 0,0.505928 0.06486,0.635653 0.10378,0.233505 0.531873,0.233505 2.516666,0 3.684192,-0.934021 0.998883,-0.83024 1.893987,-3.04854 0.648625,-1.738316 1.297251,-3.476632 0.09081,-0.220533 0.402147,-0.298368 0.20756,-0.05189 1.375086,-0.05189 1.426976,0 1.426976,0.402148 0,0.233505 -0.596735,2.101547 -0.700516,2.179381 -1.816151,3.839862 -0.739433,1.128609 -1.958849,2.270189 -0.311341,0.272423 -0.311341,0.492956 0,0.233505 1.050774,2.322079 0.908075,1.803179 1.647508,2.89287 0.817269,0.998883 2.283162,3.074484 0.06486,0.116753 0.06486,0.246478 z"
       id="text1"
       style="font-size:26.5677px;font-family:'Berlin Sans FB';-inkscape-font-specification:'Berlin Sans FB';fill:#f9f9f9;stroke-width:0.199257"
       aria-label="ASK" /><path
       style="fill:#f9f9f9;stroke-width:0.19916"
       d="m 13.897858,29.389902 c -2.699685,1.19986 -8.9989514,-3.899545 -7.1991604,1.79979 1.79979,5.699336 5.6993364,15.598186 9.5988824,13.198464 3.899546,-2.399721 -0.299964,-5.399371 2.399722,-6.599232 2.699685,-1.19986 10.498777,-3.59958 10.498777,-3.59958 L 43.894365,88.483023 55.593004,84.883442 38.494995,31.189693 c 0,0 4.499473,-2.999651 9.898851,-0.599931 5.39937,2.399722 10.198814,5.699337 10.198814,5.699337 0,0 -5.099407,-11.998604 -10.498785,-12.898499 -5.39937,-0.899895 -7.499129,-2.99965 -17.997899,0 -10.498784,2.999652 -16.198118,5.999302 -16.198118,5.999302 z"
       id="path5"
       sodipodi:nodetypes="csssccccscssc" /></g></svg>
