<?xml version="1.0" encoding="UTF-8" standalone="no"?>
<!-- Created with Inkscape (http://www.inkscape.org/) -->

<svg
   width="100mm"
   height="100mm"
   viewBox="0 0 100 100"
   version="1.1"
   id="svg5"
   inkscape:version="1.3.1 (91b66b0783, 2023-11-16)"
   sodipodi:docname="logo.svg"
   xml:space="preserve"
   inkscape:export-filename="favicon96.png"
   inkscape:export-xdpi="24.383999"
   inkscape:export-ydpi="24.383999"
   xmlns:inkscape="http://www.inkscape.org/namespaces/inkscape"
   xmlns:sodipodi="http://sodipodi.sourceforge.net/DTD/sodipodi-0.dtd"
   xmlns="http://www.w3.org/2000/svg"
   xmlns:svg="http://www.w3.org/2000/svg"><sodipodi:namedview
     id="namedview7"
     pagecolor="#ffffff"
     bordercolor="#000000"
     borderopacity="0.25"
     inkscape:showpageshadow="2"
     inkscape:pageopacity="0.0"
     inkscape:pagecheckerboard="0"
     inkscape:deskcolor="#d1d1d1"
     inkscape:document-units="mm"
     showgrid="false"
     inkscape:zoom="0.69418085"
     inkscape:cx="458.09388"
     inkscape:cy="77.069254"
     inkscape:window-width="1366"
     inkscape:window-height="705"
     inkscape:window-x="-8"
     inkscape:window-y="-8"
     inkscape:window-maximized="1"
     inkscape:current-layer="layer1" /><defs
     id="defs2"><rect
       x="181.31442"
       y="360.59161"
       width="556.16675"
       height="307.62338"
       id="rect761" /><rect
       x="14.260686"
       y="44.819298"
       width="747.66736"
       height="442.08127"
       id="rect63" /></defs><g
     inkscape:label="Layer 1"
     inkscape:groupmode="layer"
     id="layer1"><text
       xml:space="preserve"
       transform="scale(0.26458333)"
       id="text61"
       style="font-size:80px;font-family:'Franklin Gothic Demi Cond';-inkscape-font-specification:'Franklin Gothic Demi Cond';white-space:pre;shape-inside:url(#rect63);display:inline;fill:#550000" /><path
       style="fill:#000080;stroke-width:0.305214"
       d="M 21.314699,3.5726806 C 6.3644607,9.6625112 4.8544654,19.650178 4.8544654,19.650178 c 0,0 -10.4520548,57.084446 4.7316113,78.62372 C 32.392636,99.99365 55.008126,101.09584 98.212468,94.932111 94.91716,65.518559 95.315253,27.158372 97.831324,2.8103913 67.187808,17.910884 36.264937,-2.51715 21.314699,3.5726806 Z"
       id="path1"
       sodipodi:nodetypes="zccccz" /><text
       xml:space="preserve"
       style="font-size:26.5677px;font-family:'Berlin Sans FB';-inkscape-font-specification:'Berlin Sans FB';fill:#f9f9f9;stroke-width:0.199257"
       x="47.686581"
       y="58.65522"
       id="text1"><tspan
         sodipodi:role="line"
         style="font-size:26.5677px;stroke-width:0.199257"
         x="47.686581"
         y="58.65522"
         id="tspan2">ASK</tspan></text><path
       style="fill:#f9f9f9;stroke-width:0.19916"
       d="m 13.897858,29.389902 c -2.699685,1.19986 -8.9989514,-3.899545 -7.1991604,1.79979 1.79979,5.699336 5.6993364,15.598186 9.5988824,13.198464 3.899546,-2.399721 -0.299964,-5.399371 2.399722,-6.599232 2.699685,-1.19986 10.498777,-3.59958 10.498777,-3.59958 L 43.894365,88.483023 55.593004,84.883442 38.494995,31.189693 c 0,0 4.499473,-2.999651 9.898851,-0.599931 5.39937,2.399722 10.198814,5.699337 10.198814,5.699337 0,0 -5.099407,-11.998604 -10.498785,-12.898499 -5.39937,-0.899895 -7.499129,-2.99965 -17.997899,0 -10.498784,2.999652 -16.198118,5.999302 -16.198118,5.999302 z"
       id="path5"
       sodipodi:nodetypes="csssccccscssc" /></g></svg>
