<?xml version="1.0" encoding="UTF-8" standalone="no"?>
<!-- Created with Inkscape (http://www.inkscape.org/) -->

<svg
   width="400mm"
   height="50mm"
   viewBox="0 0 400 50"
   version="1.1"
   id="svg5"
   inkscape:version="1.3.1 (91b66b0783, 2023-11-16)"
   sodipodi:docname="long-logo.svg"
   xml:space="preserve"
   inkscape:export-filename="long-logo.png"
   inkscape:export-xdpi="96"
   inkscape:export-ydpi="96"
   xmlns:inkscape="http://www.inkscape.org/namespaces/inkscape"
   xmlns:sodipodi="http://sodipodi.sourceforge.net/DTD/sodipodi-0.dtd"
   xmlns="http://www.w3.org/2000/svg"
   xmlns:svg="http://www.w3.org/2000/svg"><sodipodi:namedview
     id="namedview7"
     pagecolor="#ffffff"
     bordercolor="#000000"
     borderopacity="0.25"
     inkscape:showpageshadow="2"
     inkscape:pageopacity="0.0"
     inkscape:pagecheckerboard="0"
     inkscape:deskcolor="#d1d1d1"
     inkscape:document-units="mm"
     showgrid="false"
     inkscape:zoom="0.34709043"
     inkscape:cx="553.16996"
     inkscape:cy="70.586792"
     inkscape:window-width="1366"
     inkscape:window-height="705"
     inkscape:window-x="-8"
     inkscape:window-y="-8"
     inkscape:window-maximized="1"
     inkscape:current-layer="layer1" /><defs
     id="defs2"><rect
       x="-85.56411"
       y="505.23572"
       width="1633.8671"
       height="244.46889"
       id="rect2" /><rect
       x="409.1153"
       y="106.60046"
       width="2028.3499"
       height="437.32227"
       id="rect1" /><rect
       x="181.31442"
       y="360.59161"
       width="556.16675"
       height="307.62338"
       id="rect761" /><rect
       x="14.260686"
       y="44.819298"
       width="747.66736"
       height="442.08127"
       id="rect63" /></defs><g
     inkscape:label="Layer 1"
     inkscape:groupmode="layer"
     id="layer1"><path
       style="fill:#000080;stroke-width:0.438295"
       d="M 83.004088,1.4156322 C 21.632261,4.4748361 19.884523,3.971116 19.884523,3.971116 c 0,0 -10.005173,25.049677 -1.035352,43.492748 C 112.47177,48.327775 221.31808,50.406035 398.67505,47.309707 385.14757,32.533918 386.78175,13.263818 397.11041,1.0326986 271.31656,8.6183762 144.37592,-1.6435721 83.004088,1.4156322 Z"
       id="path1"
       sodipodi:nodetypes="zccccz" /><text
       xml:space="preserve"
       transform="scale(0.26458333)"
       id="text61"
       style="font-size:80px;font-family:'Franklin Gothic Demi Cond';-inkscape-font-specification:'Franklin Gothic Demi Cond';white-space:pre;shape-inside:url(#rect63);display:inline;fill:#550000" /><text
       xml:space="preserve"
       transform="matrix(0.23247169,0,0,0.18702425,54.431983,-91.549873)"
       id="text2"
       style="font-size:213.333px;font-family:'Berlin Sans FB';-inkscape-font-specification:'Berlin Sans FB';white-space:pre;shape-inside:url(#rect2);display:inline;fill:#f9f9f9"><tspan
         x="-85.564453"
         y="705.81057"
         id="tspan2">  ASK.meitoc.net</tspan></text><path
       style="fill:#f9f9f9;stroke-width:0.119435"
       d="m 27.467014,10.57583 c -1.618982,0.719546 -5.396595,-2.3385245 -4.317276,1.079319 1.079319,3.417844 3.41784,9.354102 5.756367,7.915009 2.338528,-1.439093 -0.179883,-3.237958 1.439092,-3.957505 1.618982,-0.719546 6.296031,-2.158638 6.296031,-2.158638 l 8.814435,32.559464 7.015576,-2.158638 -10.253533,-32.199692 c 0,0 2.6983,-1.7988651 5.936263,-0.359773 3.237957,1.439093 6.116141,3.417845 6.116141,3.417845 0,0 -3.058073,-7.1954627 -6.296036,-7.7351222 -3.237951,-0.5396594 -4.49716,-1.7988649 -10.793184,0 C 30.884854,8.776965 27.467014,10.57583 27.467014,10.57583 Z"
       id="path5"
       sodipodi:nodetypes="csssccccscssc" /></g></svg>
