<?xml version="1.0" encoding="UTF-8" standalone="no"?>
<!-- Created with Inkscape (http://www.inkscape.org/) -->

<svg
   width="400mm"
   height="50mm"
   viewBox="0 0 400 50"
   version="1.1"
   id="svg5"
   inkscape:version="1.3.1 (91b66b0783, 2023-11-16)"
   sodipodi:docname="long-logo.svg"
   xml:space="preserve"
   inkscape:export-filename="long-logo.png"
   inkscape:export-xdpi="96"
   inkscape:export-ydpi="96"
   xmlns:inkscape="http://www.inkscape.org/namespaces/inkscape"
   xmlns:sodipodi="http://sodipodi.sourceforge.net/DTD/sodipodi-0.dtd"
   xmlns="http://www.w3.org/2000/svg"
   xmlns:svg="http://www.w3.org/2000/svg"><sodipodi:namedview
     id="namedview7"
     pagecolor="#ffffff"
     bordercolor="#000000"
     borderopacity="0.25"
     inkscape:showpageshadow="2"
     inkscape:pageopacity="0.0"
     inkscape:pagecheckerboard="0"
     inkscape:deskcolor="#d1d1d1"
     inkscape:document-units="mm"
     showgrid="false"
     inkscape:zoom="0.34709043"
     inkscape:cx="553.16996"
     inkscape:cy="70.586792"
     inkscape:window-width="1366"
     inkscape:window-height="705"
     inkscape:window-x="-8"
     inkscape:window-y="-8"
     inkscape:window-maximized="1"
     inkscape:current-layer="layer1" /><defs
     id="defs2"><rect
       x="-85.56411"
       y="505.23572"
       width="1633.8671"
       height="244.46889"
       id="rect2" /><rect
       x="409.1153"
       y="106.60046"
       width="2028.3499"
       height="437.32227"
       id="rect1" /><rect
       x="181.31442"
       y="360.59161"
       width="556.16675"
       height="307.62338"
       id="rect761" /><rect
       x="14.260686"
       y="44.819298"
       width="747.66736"
       height="442.08127"
       id="rect63" /></defs><g
     inkscape:label="Layer 1"
     inkscape:groupmode="layer"
     id="layer1"><path
       style="fill:#000080;stroke-width:0.438295;fill-opacity:0.46646342"
       d="M 83.004088,1.4156322 C 21.632261,4.4748361 19.884523,3.971116 19.884523,3.971116 c 0,0 -10.005173,25.049677 -1.035352,43.492748 C 112.47177,48.327775 221.31808,50.406035 398.67505,47.309707 385.14757,32.533918 386.78175,13.263818 397.11041,1.0326986 271.31656,8.6183762 144.37592,-1.6435721 83.004088,1.4156322 Z"
       id="path1"
       sodipodi:nodetypes="zccccz" /><text
       xml:space="preserve"
       transform="scale(0.26458333)"
       id="text61"
       style="font-size:80px;font-family:'Franklin Gothic Demi Cond';-inkscape-font-specification:'Franklin Gothic Demi Cond';white-space:pre;shape-inside:url(#rect63);display:inline;fill:#550000" /><path
       d="m 160.78932,704.56057 q 0,1.25 -2.5,1.25 -1.97916,0 -5.83332,-0.3125 -3.74999,-0.3125 -5.72916,-0.3125 -1.97916,0 -5.93749,0.3125 -3.95833,0.3125 -5.93749,0.3125 -2.91666,0 -7.49999,-15.72914 -4.47916,-15.83331 -9.16665,-16.04165 -3.85416,-0.20833 -20.104133,-0.20833 H 81.62278 q -17.187473,0 -19.583302,0.20833 -3.749994,0.3125 -8.020821,16.04165 -4.16666,15.72914 -6.458323,15.72914 H 24.122872 q -2.08333,0 -2.08333,-1.45833 0,-1.04167 1.458331,-4.6875 l 25.520792,-69.79155 q 3.229162,-8.43749 19.583302,-48.64576 2.916662,-6.66665 7.916654,-20.10413 1.249998,-3.95833 2.708329,-3.95833 1.979164,0 5.833324,0.52083 3.854161,0.52084 5.833324,0.52084 1.874997,0 5.624991,-0.52084 3.854161,-0.625 5.624991,-0.625 0.9375,0 2.60416,3.85417 2.5,5.83332 24.68746,62.81239 31.35412,80.10404 31.35412,80.83321 z m -48.54159,-57.49991 q 0,-3.02083 -9.37498,-27.08329 -9.06249,-23.3333 -12.812484,-30.62495 -21.562465,54.99991 -21.562465,57.60407 0,3.54167 7.916654,4.16666 0.416666,0.10417 10.208317,0.10417 h 10.729149 q 14.895809,0 14.895809,-4.16666 z m 143.74976,-76.87488 q -2.08333,3.4375 -5.72916,10.41665 -1.14583,3.22917 -4.06249,9.16666 -0.625,0.93749 -1.66667,0.93749 0.10417,0 -10.10415,-3.64582 -10.10415,-3.75 -16.66664,-3.75 -19.16663,0 -19.16663,16.87498 0,9.37498 13.43748,16.35414 22.60413,11.77081 24.99996,13.54164 13.43747,10.72915 13.43747,28.95829 0,23.33329 -18.43747,36.77077 -16.56247,12.08332 -40.7291,12.08332 -11.24998,0 -12.08331,-2.5 -0.41667,-3.95833 -1.875,-11.56248 -0.83333,-3.125 -2.60416,-9.37499 -0.3125,-0.93749 -0.3125,-1.77083 0,-1.45833 1.5625,-1.45833 2.49999,0 7.60415,0.52084 5.20833,0.52083 7.81249,0.52083 32.29161,0 32.29161,-20.8333 0,-10.20832 -13.02081,-17.70831 -23.74996,-13.54164 -24.27079,-14.06247 -13.12498,-10.62499 -13.12498,-28.54163 0,-19.37496 12.70831,-31.04161 12.39581,-11.24998 32.08328,-11.24998 8.33332,0 19.16664,2.70832 11.77081,3.02083 17.7083,7.29166 0.52084,0.41667 1.04167,1.35416 z m 131.45814,130.72896 q 0,4.89583 -3.02083,4.89583 h -23.95829 q -3.02083,0 -15.72915,-22.18747 -10.72915,-18.74997 -14.27081,-27.08329 -3.54166,-8.02082 -4.06249,-8.95832 -3.12499,-5.20832 -7.29165,-5.52082 -1.25,-0.10417 -6.97916,-0.10417 -13.12498,0 -13.12498,3.22916 0,9.58332 0.625,28.64579 0.72917,19.06247 0.72917,28.54162 0,3.4375 -2.60417,3.4375 -1.97916,0 -5.93749,-0.3125 -3.95832,-0.3125 -5.93749,-0.3125 -1.875,0 -5.62499,0.3125 -3.64583,0.3125 -5.52082,0.3125 -2.60417,0 -2.60417,-2.39583 0,-11.45832 1.04167,-34.37495 1.14583,-23.02079 1.14583,-34.47911 0,-12.08331 -1.14583,-36.24994 -1.04167,-24.2708 -1.04167,-36.35411 0,-2.29166 2.60417,-2.29166 1.87499,0 5.72915,0.3125 3.85416,0.3125 5.83333,0.3125 1.87499,0 5.62499,-0.3125 3.74999,-0.3125 5.62499,-0.3125 2.39583,0 2.39583,1.87499 0,8.85416 -0.625,26.66663 -0.52083,17.81247 -0.52083,26.77079 0,4.06249 0.52083,5.10416 0.83333,1.87499 4.27083,1.87499 20.2083,0 29.58328,-7.49998 8.02082,-6.66666 15.20831,-24.47913 5.20833,-13.95831 10.41665,-27.91662 0.72917,-1.77083 3.22916,-2.39583 1.66667,-0.41667 11.04165,-0.41667 11.45832,0 11.45832,3.22916 0,1.875 -4.79166,16.87498 -5.62499,17.49997 -14.58331,30.83328 -5.93749,9.06249 -15.72914,18.22914 -2.5,2.18749 -2.5,3.95832 0,1.875 8.43749,18.64581 7.29165,14.47914 13.22914,23.22913 6.56249,8.02082 18.33331,24.68746 0.52083,0.9375 0.52083,1.97916 z m 39.89576,-10.41665 q 0,6.87499 -4.68749,12.08332 -4.58333,5.10415 -11.35415,5.10415 -6.77083,0 -11.35415,-5.31249 -4.37499,-4.99999 -4.37499,-11.87498 0,-6.97915 4.47916,-11.87498 4.47915,-4.99999 11.24998,-4.99999 6.87499,0 11.45831,4.99999 4.58333,4.99999 4.58333,11.87498 z m 175.93724,11.45832 q 0,4.06249 -2.39583,4.06249 -1.5625,0 -4.79166,-0.3125 -3.12499,-0.3125 -4.79166,-0.3125 -1.77083,0 -5.31249,0.20833 -3.54166,0.20834 -5.31249,0.20834 -2.1875,0 -2.1875,-4.89583 0,-4.79166 0.3125,-14.27081 0.41667,-9.58332 0.41667,-14.37498 0,-26.35412 -0.20833,-29.37495 -0.83334,-10.72915 -4.375,-14.79164 -4.06249,-4.375 -14.47914,-4.375 -6.56249,0 -14.79164,6.24999 -8.54166,6.56249 -8.85416,12.91665 -0.41666,8.12499 -0.41666,29.68745 0,5.10416 0.41666,15.31248 0.41667,10.20832 0.41667,15.31247 0,2.8125 -1.875,2.8125 -1.87499,0 -5.52082,-0.3125 -3.54166,-0.3125 -5.41666,-0.3125 -1.66666,0 -4.89583,0.20833 -3.22916,0.20834 -4.89582,0.20834 -2.08333,0 -2.08333,-3.02083 0,-4.99999 0.3125,-14.99998 0.3125,-10.10415 0.3125,-15.10414 v -25.10413 q 0,-11.77081 -2.8125,-16.7708 -3.95832,-7.08333 -15.10414,-7.08333 -6.56249,0 -15.62498,5.52083 -9.99998,6.04166 -9.99998,12.18748 v 30.41662 q 0,5.20832 0.10417,15.52081 0.10416,10.31248 0.10416,15.41664 0,3.02083 -2.39583,3.02083 h -19.37497 q -2.08333,0 -2.08333,-2.8125 0,-8.43748 0.10417,-25.31246 0.10417,-16.97914 0.10417,-25.41662 0,-19.06247 -4.0625,-38.02078 -0.3125,-1.35416 -0.3125,-2.18749 0,-1.35417 0.9375,-1.5625 3.85416,-0.41667 11.24999,-1.5625 3.43749,-1.04166 10.31248,-2.29166 l 0.83333,-0.10417 q 1.25,0 2.29166,7.39582 1.14584,7.29166 1.97917,7.29166 0,0 5.20832,-4.58333 6.14583,-5.31249 12.29165,-8.43748 8.85415,-4.58333 17.7083,-4.58333 23.9583,0 30.52079,19.5833 6.45832,-8.33332 16.04164,-13.74998 10.20832,-5.83332 20.2083,-5.83332 19.2708,0 26.66663,11.24998 5.31249,8.33332 5.31249,26.35413 0,3.43749 -0.20834,10.62498 -0.20833,7.18749 -0.20833,10.62498 0,6.56249 0.3125,19.79164 0.3125,13.12498 0.3125,19.68747 z m 108.85395,-52.08325 q 0,7.70832 -6.66665,10.31248 -4.47916,1.66666 -64.47907,6.14582 1.35417,9.16666 10.10415,15.62498 8.33332,6.14582 17.91664,6.14582 16.45831,0 30.20829,-10.62498 1.66666,-1.35417 3.33332,-2.70833 0.83334,0 1.04167,0.20833 0.3125,0.20834 3.95833,7.29166 3.64582,6.97915 3.64582,7.49999 0,0.625 -1.66666,2.39583 -15.31248,16.24997 -39.27077,16.24997 -24.16663,0 -38.54161,-14.37498 -14.37497,-14.47914 -14.37497,-38.5416 0,-21.4583 13.74998,-37.39578 14.47914,-16.56247 35.52077,-16.56247 19.5833,0 32.70828,14.37498 12.81248,13.95831 12.81248,33.95828 z M 687.35096,643.519 q 0,-8.64582 -6.87499,-15.31248 -6.77083,-6.66665 -15.31248,-6.66665 -9.58332,0 -17.0833,7.70832 -7.39583,7.70832 -7.39583,17.29164 0,2.1875 3.75,2.1875 15.41664,0 36.87494,-3.125 6.04166,-0.83333 6.04166,-2.08333 z m 66.45827,-62.29157 q 0,12.81248 -14.27082,12.81248 -14.47914,0 -14.47914,-12.81248 0,-5.72915 4.47916,-9.47915 4.16666,-3.54166 9.99998,-3.54166 5.83333,0 9.99999,3.64583 4.27083,3.64583 4.27083,9.37498 z m -0.72917,28.22912 q 0,8.02082 -1.04167,24.2708 -0.93749,16.14581 -0.93749,24.27079 0,7.60416 0.3125,22.81247 0.3125,15.10414 0.3125,22.60413 0,2.18749 -1.875,2.18749 h -20.31247 q -2.1875,0 -2.1875,-4.27082 0,-7.18749 0.3125,-21.56247 0.41667,-14.47914 0.41667,-21.7708 0,-8.12498 -1.25,-24.37496 -1.14583,-16.24997 -1.14583,-24.37496 0,-1.77083 2.1875,-1.77083 1.87499,0 5.72915,0.52083 3.95833,0.52084 5.93749,0.52084 1.97917,0 5.83333,-0.52084 3.95833,-0.52083 5.93749,-0.52083 1.77083,0 1.77083,1.97916 z m 78.64568,77.18738 q 0,2.29166 -0.41667,6.24999 -0.52083,4.89583 -0.62499,6.35416 -0.10417,1.87499 -0.3125,2.29166 -0.41667,0.72917 -1.97917,1.45833 -8.54165,4.0625 -26.87495,4.0625 -24.37497,0 -24.37497,-22.0833 0,-8.85416 0.41667,-26.56246 0.41667,-17.81247 0.41667,-26.66662 0,-4.27083 -4.27083,-4.58333 -3.85416,0 -7.60415,-0.10417 -2.1875,-0.52083 -2.1875,-8.54165 0,-3.02083 0.41667,-6.35416 0.31249,-2.49999 3.33332,-3.02083 2.60417,0 5.10416,-0.10416 4.79166,-0.20833 4.79166,-4.27083 0,-4.16666 -0.3125,-12.70831 -0.20833,-8.54165 -0.20833,-12.81248 0,-7.60416 2.91666,-7.60416 0.9375,0 19.5833,3.22917 2.39583,0.3125 2.39583,2.29166 0,4.58333 -0.72916,13.74998 -0.625,9.16665 -0.625,13.74998 0,3.02082 2.81249,3.02082 h 24.99996 q 1.77083,0 1.77083,1.25 0,1.25 -0.41666,4.0625 -0.3125,2.70832 -0.3125,4.06249 0,1.5625 0.10416,4.79166 0.10417,3.22916 0.10417,4.79166 0,1.97916 -2.91666,1.97916 -4.16666,0 -12.60415,-0.52083 -8.43748,-0.625 -12.60414,-0.625 -0.83334,0 -1.25,5.93749 -0.52083,7.39582 -0.52083,20.72913 v 15.52081 q 0,8.95832 1.66666,12.49998 2.5,5.41666 10.31248,5.41666 3.22916,0 9.47915,-1.35416 6.24999,-1.45834 9.27082,-1.45834 1.25,0 1.25,1.875 z m 109.27067,-31.56245 q 0,21.7708 -14.27081,37.18744 -14.58331,15.93748 -36.14577,15.93748 -21.66663,0 -36.24994,-15.83331 -14.27081,-15.31248 -14.27081,-37.08328 0,-21.77079 14.27081,-37.08327 14.68747,-15.62497 36.24994,-15.62497 21.4583,0 36.04161,15.62497 14.37497,15.20831 14.37497,36.87494 z m -21.97913,0.20833 q 0,-12.70831 -7.81248,-21.66663 -8.12499,-9.47915 -20.62497,-9.47915 -12.49998,0 -20.72914,9.37499 -7.81248,9.06248 -7.81248,21.77079 0,12.49998 7.91665,21.66664 8.33332,9.68748 20.62497,9.68748 12.39581,0 20.62497,-9.68748 7.81248,-9.16666 7.81248,-21.66664 z M 1028.392,611.33155 q 0,2.29166 -2.3958,10.20832 -2.3958,7.91665 -3.3333,7.91665 -4.6875,-2.08333 -9.4792,-4.16666 -4.6875,-2.08333 -10.3125,-2.08333 -12.81243,0 -21.35409,9.47915 -8.54165,9.47916 -8.54165,22.3958 0,12.70831 8.54165,21.97913 8.74999,9.58332 21.35409,9.58332 6.9792,0 13.75,-3.43749 6.7708,-3.4375 5.9375,-3.4375 1.3542,0 3.0208,8.74999 1.5625,7.91665 1.5625,10.93748 0,3.22916 -12.1874,6.35416 -10.2084,2.60416 -15.10418,2.60416 -21.4583,0 -36.24995,-16.04164 -14.47914,-15.62498 -14.47914,-37.29161 0,-22.0833 14.16665,-37.49994 14.58331,-15.83331 36.3541,-15.83331 14.58332,0 26.66662,7.39582 2.0833,1.25 2.0833,2.1875 z m 41.2501,79.16654 q 0,6.87499 -4.6875,12.08332 -4.5834,5.10415 -11.3542,5.10415 -6.7708,0 -11.3541,-5.31249 -4.375,-4.99999 -4.375,-11.87498 0,-6.97915 4.4791,-11.87498 4.4792,-4.99999 11.25,-4.99999 6.875,0 11.4583,4.99999 4.5834,4.99999 4.5834,11.87498 z m 109.3748,13.22915 q 0,2.29166 -2.0833,2.29166 -3.4375,0 -10.3125,-0.10417 -6.7709,-0.10416 -10.2083,-0.10416 -1.875,0 -1.875,-3.02083 0,-5.10416 0.3125,-15.52081 0.3125,-10.41665 0.3125,-15.62497 0,-4.16666 -0.1042,-12.39582 -0.1042,-8.33332 -0.1042,-12.49998 0,-11.87498 -3.4375,-16.77081 -4.1666,-5.83332 -15.4166,-5.83332 -5.2083,0 -14.4792,5.83332 -9.7916,6.14583 -9.7916,10.93749 v 62.4999 q 0,2.60416 -1.9792,2.60416 -3.3333,0 -10,-0.10417 -6.6666,-0.10416 -9.9999,-0.10416 -2.1875,0 -2.1875,-2.39583 0,-8.22916 0.2083,-24.68746 0.3125,-16.45831 0.3125,-24.79163 0,-22.18746 -4.6875,-40.93743 -0.3125,-0.9375 -0.3125,-1.35417 0,-1.04166 1.3542,-1.45833 0.7291,-0.10417 11.875,-1.875 11.2499,-1.87499 11.7708,-1.87499 0.625,0 0.8333,1.66666 0.5208,6.45832 2.3958,13.02081 5.4167,-4.27082 14.2708,-10.62498 10.9375,-6.66666 21.1458,-6.66666 19.5833,0 26.7708,11.35415 5.3125,8.33332 5.3125,26.97913 0,3.22916 -0.2083,9.89581 -0.1042,6.66666 -0.1042,9.99999 0,6.97915 0.2084,20.8333 0.2083,13.85414 0.2083,20.8333 z m 108.0206,-53.85408 q 0,7.70832 -6.6667,10.31248 -4.4791,1.66666 -64.479,6.14582 1.3541,9.16666 10.1041,15.62498 8.3333,6.14582 17.9166,6.14582 16.4584,0 30.2083,-10.62498 1.6667,-1.35417 3.3334,-2.70833 0.8333,0 1.0416,0.20833 0.3125,0.20834 3.9584,7.29166 3.6458,6.97915 3.6458,7.49999 0,0.625 -1.6667,2.39583 -15.3125,16.24997 -39.2708,16.24997 -24.1666,0 -38.5416,-14.37498 -14.3749,-14.47914 -14.3749,-38.5416 0,-21.4583 13.7499,-37.39578 14.4792,-16.56247 35.5208,-16.56247 19.5833,0 32.7083,14.37498 12.8125,13.95831 12.8125,33.95828 z m -24.7916,-6.35416 q 0,-8.64582 -6.875,-15.31248 -6.7709,-6.66665 -15.3125,-6.66665 -9.5833,0 -17.0833,7.70832 -7.3958,7.70832 -7.3958,17.29164 0,2.1875 3.75,2.1875 15.4166,0 36.8749,-3.125 6.0417,-0.83333 6.0417,-2.08333 z m 97.3957,43.12493 q 0,2.29166 -0.4167,6.24999 -0.5208,4.89583 -0.625,6.35416 -0.1042,1.87499 -0.3125,2.29166 -0.4167,0.72917 -1.9792,1.45833 -8.5416,4.0625 -26.8749,4.0625 -24.375,0 -24.375,-22.0833 0,-8.85416 0.4167,-26.56246 0.4167,-17.81247 0.4167,-26.66662 0,-4.27083 -4.2709,-4.58333 -3.8541,0 -7.6041,-0.10417 -2.1875,-0.52083 -2.1875,-8.54165 0,-3.02083 0.4166,-6.35416 0.3125,-2.49999 3.3334,-3.02083 2.6041,0 5.1041,-0.10416 4.7917,-0.20833 4.7917,-4.27083 0,-4.16666 -0.3125,-12.70831 -0.2083,-8.54165 -0.2083,-12.81248 0,-7.60416 2.9166,-7.60416 0.9375,0 19.5833,3.22917 2.3959,0.3125 2.3959,2.29166 0,4.58333 -0.7292,13.74998 -0.625,9.16665 -0.625,13.74998 0,3.02082 2.8125,3.02082 h 24.9999 q 1.7709,0 1.7709,1.25 0,1.25 -0.4167,4.0625 -0.3125,2.70832 -0.3125,4.06249 0,1.5625 0.1042,4.79166 0.1041,3.22916 0.1041,4.79166 0,1.97916 -2.9166,1.97916 -4.1667,0 -12.6042,-0.52083 -8.4375,-0.625 -12.6041,-0.625 -0.8333,0 -1.25,5.93749 -0.5208,7.39582 -0.5208,20.72913 v 15.52081 q 0,8.95832 1.6666,12.49998 2.5,5.41666 10.3125,5.41666 3.2292,0 9.4792,-1.35416 6.2499,-1.45834 9.2708,-1.45834 1.25,0 1.25,1.875 z"
       id="text2"
       style="font-size:213.333px;font-family:'Berlin Sans FB';-inkscape-font-specification:'Berlin Sans FB';white-space:pre;fill:#f9f9f9"
       transform="matrix(0.23247169,0,0,0.18702425,54.431983,-91.549873)"
       aria-label="  ASK.meitoc.net" /><path
       style="fill:#f9f9f9;stroke-width:0.119435"
       d="m 27.467014,10.57583 c -1.618982,0.719546 -5.396595,-2.3385245 -4.317276,1.079319 1.079319,3.417844 3.41784,9.354102 5.756367,7.915009 2.338528,-1.439093 -0.179883,-3.237958 1.439092,-3.957505 1.618982,-0.719546 6.296031,-2.158638 6.296031,-2.158638 l 8.814435,32.559464 7.015576,-2.158638 -10.253533,-32.199692 c 0,0 2.6983,-1.7988651 5.936263,-0.359773 3.237957,1.439093 6.116141,3.417845 6.116141,3.417845 0,0 -3.058073,-7.1954627 -6.296036,-7.7351222 -3.237951,-0.5396594 -4.49716,-1.7988649 -10.793184,0 C 30.884854,8.776965 27.467014,10.57583 27.467014,10.57583 Z"
       id="path5"
       sodipodi:nodetypes="csssccccscssc" /></g></svg>
