<?xml version="1.0" encoding="UTF-8" standalone="no"?>
<!-- Created with Inkscape (http://www.inkscape.org/) -->

<svg
   width="100mm"
   height="100mm"
   viewBox="0 0 100 100"
   version="1.1"
   id="svg1"
   inkscape:version="1.3 (0e150ed6c4, 2023-07-21)"
   sodipodi:docname="lost-space.svg"
   inkscape:export-filename="logo-96.png"
   inkscape:export-xdpi="24.383999"
   inkscape:export-ydpi="24.383999"
   xml:space="preserve"
   xmlns:inkscape="http://www.inkscape.org/namespaces/inkscape"
   xmlns:sodipodi="http://sodipodi.sourceforge.net/DTD/sodipodi-0.dtd"
   xmlns="http://www.w3.org/2000/svg"
   xmlns:svg="http://www.w3.org/2000/svg"><sodipodi:namedview
     id="namedview1"
     pagecolor="#ffffff"
     bordercolor="#000000"
     borderopacity="0.25"
     inkscape:showpageshadow="2"
     inkscape:pageopacity="0.0"
     inkscape:pagecheckerboard="0"
     inkscape:deskcolor="#d1d1d1"
     inkscape:document-units="mm"
     inkscape:zoom="0.6639443"
     inkscape:cx="337.3777"
     inkscape:cy="164.92347"
     inkscape:window-width="1366"
     inkscape:window-height="705"
     inkscape:window-x="-8"
     inkscape:window-y="-8"
     inkscape:window-maximized="1"
     inkscape:current-layer="layer1" /><defs
     id="defs1" /><g
     inkscape:label="Layer 1"
     inkscape:groupmode="layer"
     id="layer1"><ellipse
       style="fill:#f4d7d7;stroke-width:0.161333"
       id="path1"
       cx="82.365601"
       cy="24.78203"
       rx="15.417224"
       ry="14.81947" /><ellipse
       style="fill:#f4d7d7;stroke-width:0.198259"
       id="path2"
       cx="89.935417"
       cy="-41.85001"
       rx="16.994957"
       ry="25.582691"
       transform="matrix(0.39744112,0.91762768,-0.78847325,0.61506904,0,0)" /><ellipse
       style="fill:#f4d7d7;stroke-width:0.121609"
       id="path2-6"
       cx="104.95547"
       cy="19.619341"
       rx="9.7279921"
       ry="16.815331"
       transform="matrix(0.90576218,0.42378636,-0.48233049,0.87598932,0,0)" /><path
       style="fill:#f4d7d7;stroke-width:0.204544"
       d="m 46.931153,49.863769 c 0,0 -10.750843,-9.216535 -11.945381,-9.216535 -1.194538,0 -16.126265,10.169972 -16.126265,10.169972 l -4.778153,-7.627477 c 0,0 -5.6740558,-5.720609 -4.4795178,3.813737 1.1945378,9.534347 5.0767868,15.254956 7.1672288,14.301521 2.090442,-0.953434 13.13992,-10.487781 16.126265,-7.627478 2.986345,2.860304 12.841285,6.991855 9.556306,10.16997 -3.28498,3.178117 -11.646748,4.767174 -17.918073,9.216537 -6.271325,4.449362 -12.244017,0.953434 -14.334458,1.271246 -2.0904419,0.317811 -7.4658621,2.224679 -6.2713241,5.4028 1.194537,3.178114 8.3617651,6.991851 10.7508421,6.356231 2.389076,-0.63562 21.501687,-5.084992 28.071647,-6.991858 6.569959,-1.906866 11.945381,-1.906866 11.945381,-1.906866 l 1.493172,-20.975568 z"
       id="path3" /><path
       style="fill:#f4d7d7;stroke-width:0.238322"
       d="M 59.23073,38.007549 C 57.400183,33.784396 51.908543,22.170719 50.077997,21.466859 48.24745,20.763 43.121919,18.651423 44.220246,16.187915 c 1.098328,-2.463507 5.491641,-1.055788 5.491641,-1.055788 0,0 -1.098328,-5.6308739 1.464437,-5.9828039 2.562765,-0.3519287 9.152734,0 9.518843,1.7596479 0.366109,1.759648 -1.830546,4.223156 -0.732218,6.334733 1.098327,2.111578 6.589967,16.892621 6.589967,16.892621 l 13.546045,12.317537 -8.054406,7.742452 z"
       id="path4" /><path
       style="fill:#f9f9f9;stroke-width:0.264583"
       d="M 67.54614,28.194038 C 78.80383,26.799279 79.999336,28.094413 80.497465,24.30864 80.995593,20.522868 82.07164,15.522213 81.394095,9.9625575 74.340493,10.062183 65.496949,15.567873 67.54614,28.194038 Z"
       id="path5"
       sodipodi:nodetypes="cscc" /></g></svg>
