<?xml version="1.0" encoding="UTF-8" standalone="no"?>
<!-- Created with Inkscape (http://www.inkscape.org/) -->

<svg
   width="100mm"
   height="100mm"
   viewBox="0 0 100 100"
   version="1.1"
   id="svg1"
   inkscape:version="1.3 (0e150ed6c4, 2023-07-21)"
   sodipodi:docname="lost-task.svg"
   inkscape:export-filename="logo-96.png"
   inkscape:export-xdpi="24.383999"
   inkscape:export-ydpi="24.383999"
   xml:space="preserve"
   xmlns:inkscape="http://www.inkscape.org/namespaces/inkscape"
   xmlns:sodipodi="http://sodipodi.sourceforge.net/DTD/sodipodi-0.dtd"
   xmlns="http://www.w3.org/2000/svg"
   xmlns:svg="http://www.w3.org/2000/svg"><sodipodi:namedview
     id="namedview1"
     pagecolor="#ffffff"
     bordercolor="#000000"
     borderopacity="0.25"
     inkscape:showpageshadow="2"
     inkscape:pageopacity="0.0"
     inkscape:pagecheckerboard="0"
     inkscape:deskcolor="#d1d1d1"
     inkscape:document-units="mm"
     inkscape:zoom="0.6639443"
     inkscape:cx="337.3777"
     inkscape:cy="164.92347"
     inkscape:window-width="1366"
     inkscape:window-height="705"
     inkscape:window-x="-8"
     inkscape:window-y="-8"
     inkscape:window-maximized="1"
     inkscape:current-layer="layer1" /><defs
     id="defs1" /><g
     inkscape:label="Layer 1"
     inkscape:groupmode="layer"
     id="layer1"><path
       style="fill:#f4d7d7;stroke-width:0.264583"
       d="m 23.24589,18.488254 c -3.586521,1.594009 -11.955069,-5.180528 -9.564055,2.391013 2.391013,7.571544 7.571543,20.722122 12.752073,17.534102 5.180529,-3.188018 -0.398502,-7.17304 3.188018,-8.767051 3.586522,-1.594009 13.947582,-4.782026 13.947582,-4.782026 L 63.096118,96.993208 78.637711,92.211181 55.923079,20.879269 c 0,0 5.977534,-3.985024 13.150576,-0.797006 7.17304,3.18802 13.54908,7.571544 13.54908,7.571544 0,0 -6.77454,-15.940093 -13.947584,-17.135599 -7.17304,-1.1955071 -9.962558,-3.9850221 -23.910137,0 -13.947581,3.985024 -21.519124,7.970046 -21.519124,7.970046 z"
       id="path5"
       sodipodi:nodetypes="csssccccscssc" /></g></svg>
